<?xml version="1.0" encoding="UTF-8" standalone="no"?>
<!DOCTYPE svg PUBLIC "-//W3C//DTD SVG 1.1//EN"
 "http://www.w3.org/Graphics/SVG/1.1/DTD/svg11.dtd">
<!-- Generated by graphviz version 2.47.0 (20210316.0004)
 -->
<!-- Title: dependencies Pages: 1 -->
<svg width="504pt" height="284pt"
 viewBox="0.00 0.00 504.00 284.00" xmlns="http://www.w3.org/2000/svg" xmlns:xlink="http://www.w3.org/1999/xlink">
<g id="graph0" class="graph" transform="scale(1 1) rotate(0) translate(4 280)">
<title>dependencies</title>
<polygon fill="white" stroke="transparent" points="-4,4 -4,-280 500,-280 500,4 -4,4"/>
<text text-anchor="start" x="227.01" y="-42.4" font-family="Times-12" font-weight="bold" font-size="14.00">Legend</text>
<polygon fill="#ffffb3" stroke="transparent" points="14,-10 14,-30 34,-30 34,-10 14,-10"/>
<text text-anchor="start" x="37.63" y="-15.4" font-family="Times-12" font-size="14.00"> &#160;Declarations</text>
<polygon fill="#8dd3c7" stroke="transparent" points="127,-10 127,-30 147,-30 147,-10 127,-10"/>
<text text-anchor="start" x="150.73" y="-15.4" font-family="Times-12" font-size="14.00"> &#160;Module</text>
<polygon fill="#80b1d3" stroke="transparent" points="213,-10 213,-30 233,-30 233,-10 213,-10"/>
<text text-anchor="start" x="236.78" y="-15.4" font-family="Times-12" font-size="14.00"> &#160;Bootstrap</text>
<polygon fill="#fdb462" stroke="transparent" points="310,-10 310,-30 330,-30 330,-10 310,-10"/>
<text text-anchor="start" x="333.67" y="-15.4" font-family="Times-12" font-size="14.00"> &#160;Providers</text>
<polygon fill="#fb8072" stroke="transparent" points="406,-10 406,-30 426,-30 426,-10 406,-10"/>
<text text-anchor="start" x="429.73" y="-15.4" font-family="Times-12" font-size="14.00"> &#160;Exports</text>
<g id="clust1" class="cluster">
<title>cluster_AppSharedModule</title>
<polygon fill="none" stroke="black" stroke-dasharray="1,5" points="54,-70 54,-268 442,-268 442,-70 54,-70"/>
</g>
<g id="clust7" class="cluster">
<title>cluster_AppSharedModule_exports</title>
<polygon fill="none" stroke="black" points="132,-208 132,-260 344,-260 344,-208 132,-208"/>
</g>
<g id="clust2" class="cluster">
<title>cluster_AppSharedModule_declarations</title>
<polygon fill="none" stroke="black" points="62,-78 62,-130 434,-130 434,-78 62,-78"/>
</g>
<!-- ClassNamePipe -->
<g id="node1" class="node">
<title>ClassNamePipe</title>
<polygon fill="#ffffb3" stroke="black" points="426.15,-122 321.85,-122 321.85,-86 426.15,-86 426.15,-122"/>
<text text-anchor="middle" x="374" y="-99.8" font-family="Times,serif" font-size="14.00">ClassNamePipe</text>
</g>
<!-- AppSharedModule -->
<g id="node4" class="node">
<title>AppSharedModule</title>
<polygon fill="#8dd3c7" stroke="black" points="290.03,-187 287.03,-191 266.03,-191 263.03,-187 167.97,-187 167.97,-151 290.03,-151 290.03,-187"/>
<text text-anchor="middle" x="229" y="-164.8" font-family="Times,serif" font-size="14.00">AppSharedModule</text>
</g>
<!-- ClassNamePipe&#45;&gt;AppSharedModule -->
<g id="edge1" class="edge">
<title>ClassNamePipe&#45;&gt;AppSharedModule</title>
<path fill="none" stroke="black" d="M328.88,-122.11C328.88,-141.34 328.88,-169 328.88,-169 328.88,-169 300.26,-169 300.26,-169"/>
<polygon fill="black" stroke="black" points="300.26,-165.5 290.26,-169 300.26,-172.5 300.26,-165.5"/>
</g>
<!-- RateByUserComponent -->
<g id="node2" class="node">
<title>RateByUserComponent</title>
<polygon fill="#ffffb3" stroke="black" points="303.75,-122 154.25,-122 154.25,-86 303.75,-86 303.75,-122"/>
<text text-anchor="middle" x="229" y="-99.8" font-family="Times,serif" font-size="14.00">RateByUserComponent</text>
</g>
<!-- RateByUserComponent&#45;&gt;AppSharedModule -->
<g id="edge2" class="edge">
<title>RateByUserComponent&#45;&gt;AppSharedModule</title>
<path fill="none" stroke="black" d="M229,-122.11C229,-122.11 229,-140.99 229,-140.99"/>
<polygon fill="black" stroke="black" points="225.5,-140.99 229,-150.99 232.5,-140.99 225.5,-140.99"/>
</g>
<!-- SafePipe -->
<g id="node3" class="node">
<title>SafePipe</title>
<polygon fill="#ffffb3" stroke="black" points="135.76,-122 70.24,-122 70.24,-86 135.76,-86 135.76,-122"/>
<text text-anchor="middle" x="103" y="-99.8" font-family="Times,serif" font-size="14.00">SafePipe</text>
</g>
<!-- SafePipe&#45;&gt;AppSharedModule -->
<g id="edge3" class="edge">
<title>SafePipe&#45;&gt;AppSharedModule</title>
<path fill="none" stroke="black" d="M103,-122.11C103,-141.34 103,-169 103,-169 103,-169 157.85,-169 157.85,-169"/>
<polygon fill="black" stroke="black" points="157.85,-172.5 167.85,-169 157.85,-165.5 157.85,-172.5"/>
</g>
<!-- ClassNamePipe  -->
<g id="node5" class="node">
<title>ClassNamePipe </title>
<polygon fill="#fb8072" stroke="black" points="336.15,-252 227.85,-252 227.85,-216 336.15,-216 336.15,-252"/>
<text text-anchor="middle" x="282" y="-229.8" font-family="Times,serif" font-size="14.00">ClassNamePipe </text>
</g>
<!-- AppSharedModule&#45;&gt;ClassNamePipe  -->
<g id="edge4" class="edge">
<title>AppSharedModule&#45;&gt;ClassNamePipe </title>
<path fill="none" stroke="black" stroke-dasharray="5,2" d="M259.1,-187.11C259.1,-187.11 259.1,-205.99 259.1,-205.99"/>
<polygon fill="black" stroke="black" points="255.6,-205.99 259.1,-215.99 262.6,-205.99 255.6,-205.99"/>
</g>
<!-- SafePipe  -->
<g id="node6" class="node">
<title>SafePipe </title>
<polygon fill="#fb8072" stroke="black" points="209.76,-252 140.24,-252 140.24,-216 209.76,-216 209.76,-252"/>
<text text-anchor="middle" x="175" y="-229.8" font-family="Times,serif" font-size="14.00">SafePipe </text>
</g>
<!-- AppSharedModule&#45;&gt;SafePipe  -->
<g id="edge5" class="edge">
<title>AppSharedModule&#45;&gt;SafePipe </title>
<path fill="none" stroke="black" stroke-dasharray="5,2" d="M188.68,-187.11C188.68,-187.11 188.68,-205.99 188.68,-205.99"/>
<polygon fill="black" stroke="black" points="185.18,-205.99 188.68,-215.99 192.18,-205.99 185.18,-205.99"/>
</g>
</g>
</svg>
