<?xml version="1.0" encoding="UTF-8" standalone="no"?>
<!DOCTYPE svg PUBLIC "-//W3C//DTD SVG 1.1//EN"
 "http://www.w3.org/Graphics/SVG/1.1/DTD/svg11.dtd">
<!-- Generated by graphviz version 2.47.0 (20210316.0004)
 -->
<!-- Title: dependencies Pages: 1 -->
<svg width="640pt" height="211pt"
 viewBox="0.00 0.00 640.00 211.00" xmlns="http://www.w3.org/2000/svg" xmlns:xlink="http://www.w3.org/1999/xlink">
<g id="graph0" class="graph" transform="scale(1 1) rotate(0) translate(4 207)">
<title>dependencies</title>
<polygon fill="white" stroke="transparent" points="-4,4 -4,-207 636,-207 636,4 -4,4"/>
<text text-anchor="start" x="295.01" y="-42.4" font-family="Times-12" font-weight="bold" font-size="14.00">Legend</text>
<polygon fill="#ffffb3" stroke="transparent" points="82,-10 82,-30 102,-30 102,-10 82,-10"/>
<text text-anchor="start" x="105.63" y="-15.4" font-family="Times-12" font-size="14.00"> &#160;Declarations</text>
<polygon fill="#8dd3c7" stroke="transparent" points="195,-10 195,-30 215,-30 215,-10 195,-10"/>
<text text-anchor="start" x="218.73" y="-15.4" font-family="Times-12" font-size="14.00"> &#160;Module</text>
<polygon fill="#80b1d3" stroke="transparent" points="281,-10 281,-30 301,-30 301,-10 281,-10"/>
<text text-anchor="start" x="304.78" y="-15.4" font-family="Times-12" font-size="14.00"> &#160;Bootstrap</text>
<polygon fill="#fdb462" stroke="transparent" points="378,-10 378,-30 398,-30 398,-10 378,-10"/>
<text text-anchor="start" x="401.67" y="-15.4" font-family="Times-12" font-size="14.00"> &#160;Providers</text>
<polygon fill="#fb8072" stroke="transparent" points="474,-10 474,-30 494,-30 494,-10 474,-10"/>
<text text-anchor="start" x="497.73" y="-15.4" font-family="Times-12" font-size="14.00"> &#160;Exports</text>
<g id="clust1" class="cluster">
<title>cluster_FormModule</title>
<polygon fill="none" stroke="black" stroke-dasharray="1,5" points="8,-70 8,-195 624,-195 624,-70 8,-70"/>
</g>
<g id="clust5" class="cluster">
<title>cluster_FormModule_imports</title>
<polygon fill="none" stroke="black" points="362,-78 362,-130 616,-130 616,-78 362,-78"/>
</g>
<g id="clust2" class="cluster">
<title>cluster_FormModule_declarations</title>
<polygon fill="none" stroke="black" points="16,-78 16,-130 354,-130 354,-78 16,-78"/>
</g>
<!-- FormRendererComponent -->
<g id="node1" class="node">
<title>FormRendererComponent</title>
<polygon fill="#ffffb3" stroke="black" points="346.47,-122 183.53,-122 183.53,-86 346.47,-86 346.47,-122"/>
<text text-anchor="middle" x="265" y="-99.8" font-family="Times,serif" font-size="14.00">FormRendererComponent</text>
</g>
<!-- FormModule -->
<g id="node3" class="node">
<title>FormModule</title>
<polygon fill="#8dd3c7" stroke="black" points="388.88,-187 385.88,-191 364.88,-191 361.88,-187 299.12,-187 299.12,-151 388.88,-151 388.88,-187"/>
<text text-anchor="middle" x="344" y="-164.8" font-family="Times,serif" font-size="14.00">FormModule</text>
</g>
<!-- FormRendererComponent&#45;&gt;FormModule -->
<g id="edge1" class="edge">
<title>FormRendererComponent&#45;&gt;FormModule</title>
<path fill="none" stroke="black" d="M322.77,-122.11C322.77,-122.11 322.77,-140.99 322.77,-140.99"/>
<polygon fill="black" stroke="black" points="319.27,-140.99 322.77,-150.99 326.27,-140.99 319.27,-140.99"/>
</g>
<!-- FormViewComponent -->
<g id="node2" class="node">
<title>FormViewComponent</title>
<polygon fill="#ffffb3" stroke="black" points="165.98,-122 24.02,-122 24.02,-86 165.98,-86 165.98,-122"/>
<text text-anchor="middle" x="95" y="-99.8" font-family="Times,serif" font-size="14.00">FormViewComponent</text>
</g>
<!-- FormViewComponent&#45;&gt;FormModule -->
<g id="edge2" class="edge">
<title>FormViewComponent&#45;&gt;FormModule</title>
<path fill="none" stroke="black" d="M95,-122.11C95,-141.34 95,-169 95,-169 95,-169 288.91,-169 288.91,-169"/>
<polygon fill="black" stroke="black" points="288.91,-172.5 298.91,-169 288.91,-165.5 288.91,-172.5"/>
</g>
<!-- GraphQLModule -->
<g id="node4" class="node">
<title>GraphQLModule</title>
<polygon fill="#8dd3c7" stroke="black" points="607.69,-122 604.69,-126 583.69,-126 580.69,-122 494.31,-122 494.31,-86 607.69,-86 607.69,-122"/>
<text text-anchor="middle" x="551" y="-99.8" font-family="Times,serif" font-size="14.00">GraphQLModule</text>
</g>
<!-- GraphQLModule&#45;&gt;FormModule -->
<g id="edge3" class="edge">
<title>GraphQLModule&#45;&gt;FormModule</title>
<path fill="none" stroke="black" d="M551,-122.11C551,-141.34 551,-169 551,-169 551,-169 398.92,-169 398.92,-169"/>
<polygon fill="black" stroke="black" points="398.92,-165.5 388.92,-169 398.92,-172.5 398.92,-165.5"/>
</g>
<!-- PrimengModule -->
<g id="node5" class="node">
<title>PrimengModule</title>
<polygon fill="#8dd3c7" stroke="black" points="476.49,-122 473.49,-126 452.49,-126 449.49,-122 369.51,-122 369.51,-86 476.49,-86 476.49,-122"/>
<text text-anchor="middle" x="423" y="-99.8" font-family="Times,serif" font-size="14.00">PrimengModule</text>
</g>
<!-- PrimengModule&#45;&gt;FormModule -->
<g id="edge4" class="edge">
<title>PrimengModule&#45;&gt;FormModule</title>
<path fill="none" stroke="black" d="M379.22,-122.11C379.22,-122.11 379.22,-140.99 379.22,-140.99"/>
<polygon fill="black" stroke="black" points="375.72,-140.99 379.22,-150.99 382.72,-140.99 375.72,-140.99"/>
</g>
</g>
</svg>
