<?xml version="1.0" encoding="UTF-8" standalone="no"?>
<!DOCTYPE svg PUBLIC "-//W3C//DTD SVG 1.1//EN"
 "http://www.w3.org/Graphics/SVG/1.1/DTD/svg11.dtd">
<!-- Generated by graphviz version 2.47.0 (20210316.0004)
 -->
<!-- Title: dependencies Pages: 1 -->
<svg width="1711pt" height="284pt"
 viewBox="0.00 0.00 1711.00 284.00" xmlns="http://www.w3.org/2000/svg" xmlns:xlink="http://www.w3.org/1999/xlink">
<g id="graph0" class="graph" transform="scale(1 1) rotate(0) translate(4 280)">
<title>dependencies</title>
<polygon fill="white" stroke="transparent" points="-4,4 -4,-280 1707,-280 1707,4 -4,4"/>
<text text-anchor="start" x="830.51" y="-42.4" font-family="Times-12" font-weight="bold" font-size="14.00">Legend</text>
<polygon fill="#ffffb3" stroke="transparent" points="617.5,-10 617.5,-30 637.5,-30 637.5,-10 617.5,-10"/>
<text text-anchor="start" x="641.13" y="-15.4" font-family="Times-12" font-size="14.00"> &#160;Declarations</text>
<polygon fill="#8dd3c7" stroke="transparent" points="730.5,-10 730.5,-30 750.5,-30 750.5,-10 730.5,-10"/>
<text text-anchor="start" x="754.23" y="-15.4" font-family="Times-12" font-size="14.00"> &#160;Module</text>
<polygon fill="#80b1d3" stroke="transparent" points="816.5,-10 816.5,-30 836.5,-30 836.5,-10 816.5,-10"/>
<text text-anchor="start" x="840.28" y="-15.4" font-family="Times-12" font-size="14.00"> &#160;Bootstrap</text>
<polygon fill="#fdb462" stroke="transparent" points="913.5,-10 913.5,-30 933.5,-30 933.5,-10 913.5,-10"/>
<text text-anchor="start" x="937.17" y="-15.4" font-family="Times-12" font-size="14.00"> &#160;Providers</text>
<polygon fill="#fb8072" stroke="transparent" points="1009.5,-10 1009.5,-30 1029.5,-30 1029.5,-10 1009.5,-10"/>
<text text-anchor="start" x="1033.23" y="-15.4" font-family="Times-12" font-size="14.00"> &#160;Exports</text>
<g id="clust1" class="cluster">
<title>cluster_NavigationModule</title>
<polygon fill="none" stroke="black" stroke-dasharray="1,5" points="8,-70 8,-268 1695,-268 1695,-70 8,-70"/>
</g>
<g id="clust2" class="cluster">
<title>cluster_NavigationModule_declarations</title>
<polygon fill="none" stroke="black" points="515,-78 515,-130 1687,-130 1687,-78 515,-78"/>
</g>
<g id="clust11" class="cluster">
<title>cluster_NavigationModule_exports</title>
<polygon fill="none" stroke="black" points="524,-208 524,-260 979,-260 979,-208 524,-208"/>
</g>
<g id="clust10" class="cluster">
<title>cluster_NavigationModule_imports</title>
<polygon fill="none" stroke="black" points="16,-78 16,-130 507,-130 507,-78 16,-78"/>
</g>
<!-- DividerTextComponent -->
<g id="node1" class="node">
<title>DividerTextComponent</title>
<polygon fill="#ffffb3" stroke="black" points="1678.75,-122 1529.25,-122 1529.25,-86 1678.75,-86 1678.75,-122"/>
<text text-anchor="middle" x="1604" y="-99.8" font-family="Times,serif" font-size="14.00">DividerTextComponent</text>
</g>
<!-- NavigationModule -->
<g id="node8" class="node">
<title>NavigationModule</title>
<polygon fill="#8dd3c7" stroke="black" points="810.76,-187 807.76,-191 786.76,-191 783.76,-187 689.24,-187 689.24,-151 810.76,-151 810.76,-187"/>
<text text-anchor="middle" x="750" y="-164.8" font-family="Times,serif" font-size="14.00">NavigationModule</text>
</g>
<!-- DividerTextComponent&#45;&gt;NavigationModule -->
<g id="edge1" class="edge">
<title>DividerTextComponent&#45;&gt;NavigationModule</title>
<path fill="none" stroke="black" d="M1604,-122.04C1604,-143.66 1604,-177 1604,-177 1604,-177 821.07,-177 821.07,-177"/>
<polygon fill="black" stroke="black" points="821.07,-173.5 811.07,-177 821.07,-180.5 821.07,-173.5"/>
</g>
<!-- NotificationsComponent -->
<g id="node2" class="node">
<title>NotificationsComponent</title>
<polygon fill="#ffffb3" stroke="black" points="1511.43,-122 1356.57,-122 1356.57,-86 1511.43,-86 1511.43,-122"/>
<text text-anchor="middle" x="1434" y="-99.8" font-family="Times,serif" font-size="14.00">NotificationsComponent</text>
</g>
<!-- NotificationsComponent&#45;&gt;NavigationModule -->
<g id="edge2" class="edge">
<title>NotificationsComponent&#45;&gt;NavigationModule</title>
<path fill="none" stroke="black" d="M1434,-122.22C1434,-142.37 1434,-172 1434,-172 1434,-172 821,-172 821,-172"/>
<polygon fill="black" stroke="black" points="821,-168.5 811,-172 821,-175.5 821,-168.5"/>
</g>
<!-- SideNavComponent -->
<g id="node3" class="node">
<title>SideNavComponent</title>
<polygon fill="#ffffb3" stroke="black" points="1338.54,-122 1209.46,-122 1209.46,-86 1338.54,-86 1338.54,-122"/>
<text text-anchor="middle" x="1274" y="-99.8" font-family="Times,serif" font-size="14.00">SideNavComponent</text>
</g>
<!-- SideNavComponent&#45;&gt;NavigationModule -->
<g id="edge3" class="edge">
<title>SideNavComponent&#45;&gt;NavigationModule</title>
<path fill="none" stroke="black" d="M1274,-122.22C1274,-140.83 1274,-167 1274,-167 1274,-167 820.88,-167 820.88,-167"/>
<polygon fill="black" stroke="black" points="820.88,-163.5 810.88,-167 820.88,-170.5 820.88,-163.5"/>
</g>
<!-- SideNavRouteIconComponent -->
<g id="node4" class="node">
<title>SideNavRouteIconComponent</title>
<polygon fill="#ffffb3" stroke="black" points="1190.86,-122 1003.14,-122 1003.14,-86 1190.86,-86 1190.86,-122"/>
<text text-anchor="middle" x="1097" y="-99.8" font-family="Times,serif" font-size="14.00">SideNavRouteIconComponent</text>
</g>
<!-- SideNavRouteIconComponent&#45;&gt;NavigationModule -->
<g id="edge4" class="edge">
<title>SideNavRouteIconComponent&#45;&gt;NavigationModule</title>
<path fill="none" stroke="black" d="M1097,-122.03C1097,-139.06 1097,-162 1097,-162 1097,-162 820.84,-162 820.84,-162"/>
<polygon fill="black" stroke="black" points="820.84,-158.5 810.84,-162 820.84,-165.5 820.84,-158.5"/>
</g>
<!-- SubMenuComponent -->
<g id="node5" class="node">
<title>SubMenuComponent</title>
<polygon fill="#ffffb3" stroke="black" points="984.77,-122 849.23,-122 849.23,-86 984.77,-86 984.77,-122"/>
<text text-anchor="middle" x="917" y="-99.8" font-family="Times,serif" font-size="14.00">SubMenuComponent</text>
</g>
<!-- SubMenuComponent&#45;&gt;NavigationModule -->
<g id="edge5" class="edge">
<title>SubMenuComponent&#45;&gt;NavigationModule</title>
<path fill="none" stroke="black" d="M909.82,-122.24C909.82,-137.57 909.82,-157 909.82,-157 909.82,-157 820.88,-157 820.88,-157"/>
<polygon fill="black" stroke="black" points="820.88,-153.5 810.88,-157 820.88,-160.5 820.88,-153.5"/>
</g>
<!-- SublevelMenuComponent -->
<g id="node6" class="node">
<title>SublevelMenuComponent</title>
<polygon fill="#ffffb3" stroke="black" points="831.48,-122 668.52,-122 668.52,-86 831.48,-86 831.48,-122"/>
<text text-anchor="middle" x="750" y="-99.8" font-family="Times,serif" font-size="14.00">SublevelMenuComponent</text>
</g>
<!-- SublevelMenuComponent&#45;&gt;NavigationModule -->
<g id="edge6" class="edge">
<title>SublevelMenuComponent&#45;&gt;NavigationModule</title>
<path fill="none" stroke="black" d="M750,-122.11C750,-122.11 750,-140.99 750,-140.99"/>
<polygon fill="black" stroke="black" points="746.5,-140.99 750,-150.99 753.5,-140.99 746.5,-140.99"/>
</g>
<!-- TopNavComponent -->
<g id="node7" class="node">
<title>TopNavComponent</title>
<polygon fill="#ffffb3" stroke="black" points="650.71,-122 523.29,-122 523.29,-86 650.71,-86 650.71,-122"/>
<text text-anchor="middle" x="587" y="-99.8" font-family="Times,serif" font-size="14.00">TopNavComponent</text>
</g>
<!-- TopNavComponent&#45;&gt;NavigationModule -->
<g id="edge7" class="edge">
<title>TopNavComponent&#45;&gt;NavigationModule</title>
<path fill="none" stroke="black" d="M591.12,-122.24C591.12,-137.57 591.12,-157 591.12,-157 591.12,-157 679.03,-157 679.03,-157"/>
<polygon fill="black" stroke="black" points="679.03,-160.5 689.03,-157 679.03,-153.5 679.03,-160.5"/>
</g>
<!-- SideNavComponent  -->
<g id="node13" class="node">
<title>SideNavComponent </title>
<polygon fill="#fb8072" stroke="black" points="970.54,-252 837.46,-252 837.46,-216 970.54,-216 970.54,-252"/>
<text text-anchor="middle" x="904" y="-229.8" font-family="Times,serif" font-size="14.00">SideNavComponent </text>
</g>
<!-- NavigationModule&#45;&gt;SideNavComponent  -->
<g id="edge12" class="edge">
<title>NavigationModule&#45;&gt;SideNavComponent </title>
<path fill="none" stroke="black" stroke-dasharray="5,2" d="M810.93,-182C828.63,-182 843.3,-182 843.3,-182 843.3,-182 843.3,-205.81 843.3,-205.81"/>
<polygon fill="black" stroke="black" points="839.8,-205.81 843.3,-215.81 846.8,-205.81 839.8,-205.81"/>
</g>
<!-- SubMenuComponent  -->
<g id="node14" class="node">
<title>SubMenuComponent </title>
<polygon fill="#fb8072" stroke="black" points="819.77,-252 680.23,-252 680.23,-216 819.77,-216 819.77,-252"/>
<text text-anchor="middle" x="750" y="-229.8" font-family="Times,serif" font-size="14.00">SubMenuComponent </text>
</g>
<!-- NavigationModule&#45;&gt;SubMenuComponent  -->
<g id="edge13" class="edge">
<title>NavigationModule&#45;&gt;SubMenuComponent </title>
<path fill="none" stroke="black" stroke-dasharray="5,2" d="M750,-187.11C750,-187.11 750,-205.99 750,-205.99"/>
<polygon fill="black" stroke="black" points="746.5,-205.99 750,-215.99 753.5,-205.99 746.5,-205.99"/>
</g>
<!-- TopNavComponent  -->
<g id="node15" class="node">
<title>TopNavComponent </title>
<polygon fill="#fb8072" stroke="black" points="662.21,-252 531.79,-252 531.79,-216 662.21,-216 662.21,-252"/>
<text text-anchor="middle" x="597" y="-229.8" font-family="Times,serif" font-size="14.00">TopNavComponent </text>
</g>
<!-- NavigationModule&#45;&gt;TopNavComponent  -->
<g id="edge14" class="edge">
<title>NavigationModule&#45;&gt;TopNavComponent </title>
<path fill="none" stroke="black" stroke-dasharray="5,2" d="M689.19,-182C671.32,-182 656.48,-182 656.48,-182 656.48,-182 656.48,-205.81 656.48,-205.81"/>
<polygon fill="black" stroke="black" points="652.98,-205.81 656.48,-215.81 659.98,-205.81 652.98,-205.81"/>
</g>
<!-- AppSharedModule -->
<g id="node9" class="node">
<title>AppSharedModule</title>
<polygon fill="#8dd3c7" stroke="black" points="499.03,-122 496.03,-126 475.03,-126 472.03,-122 376.97,-122 376.97,-86 499.03,-86 499.03,-122"/>
<text text-anchor="middle" x="438" y="-99.8" font-family="Times,serif" font-size="14.00">AppSharedModule</text>
</g>
<!-- AppSharedModule&#45;&gt;NavigationModule -->
<g id="edge8" class="edge">
<title>AppSharedModule&#45;&gt;NavigationModule</title>
<path fill="none" stroke="black" d="M438,-122.03C438,-139.06 438,-162 438,-162 438,-162 679.1,-162 679.1,-162"/>
<polygon fill="black" stroke="black" points="679.1,-165.5 689.1,-162 679.1,-158.5 679.1,-165.5"/>
</g>
<!-- IconsModule -->
<g id="node10" class="node">
<title>IconsModule</title>
<polygon fill="#8dd3c7" stroke="black" points="358.87,-122 355.87,-126 334.87,-126 331.87,-122 269.13,-122 269.13,-86 358.87,-86 358.87,-122"/>
<text text-anchor="middle" x="314" y="-99.8" font-family="Times,serif" font-size="14.00">IconsModule</text>
</g>
<!-- IconsModule&#45;&gt;NavigationModule -->
<g id="edge9" class="edge">
<title>IconsModule&#45;&gt;NavigationModule</title>
<path fill="none" stroke="black" d="M314,-122.22C314,-140.83 314,-167 314,-167 314,-167 678.92,-167 678.92,-167"/>
<polygon fill="black" stroke="black" points="678.92,-170.5 688.92,-167 678.92,-163.5 678.92,-170.5"/>
</g>
<!-- PrimengModule -->
<g id="node11" class="node">
<title>PrimengModule</title>
<polygon fill="#8dd3c7" stroke="black" points="251.49,-122 248.49,-126 227.49,-126 224.49,-122 144.51,-122 144.51,-86 251.49,-86 251.49,-122"/>
<text text-anchor="middle" x="198" y="-99.8" font-family="Times,serif" font-size="14.00">PrimengModule</text>
</g>
<!-- PrimengModule&#45;&gt;NavigationModule -->
<g id="edge10" class="edge">
<title>PrimengModule&#45;&gt;NavigationModule</title>
<path fill="none" stroke="black" d="M198,-122.22C198,-142.37 198,-172 198,-172 198,-172 679.08,-172 679.08,-172"/>
<polygon fill="black" stroke="black" points="679.08,-175.5 689.08,-172 679.08,-168.5 679.08,-175.5"/>
</g>
<!-- StorageModule -->
<g id="node12" class="node">
<title>StorageModule</title>
<polygon fill="#8dd3c7" stroke="black" points="126.31,-122 123.31,-126 102.31,-126 99.31,-122 23.69,-122 23.69,-86 126.31,-86 126.31,-122"/>
<text text-anchor="middle" x="75" y="-99.8" font-family="Times,serif" font-size="14.00">StorageModule</text>
</g>
<!-- StorageModule&#45;&gt;NavigationModule -->
<g id="edge11" class="edge">
<title>StorageModule&#45;&gt;NavigationModule</title>
<path fill="none" stroke="black" d="M75,-122.04C75,-143.66 75,-177 75,-177 75,-177 679.21,-177 679.21,-177"/>
<polygon fill="black" stroke="black" points="679.21,-180.5 689.21,-177 679.21,-173.5 679.21,-180.5"/>
</g>
</g>
</svg>
