<svg xmlns="http://www.w3.org/2000/svg" width="60" height="60" viewBox="0 0 60 60">
  <g id="Grupo_99" data-name="Grupo 99" transform="translate(-30 -35)">
    <circle id="Elipse_395" data-name="Elipse 395" cx="30" cy="30" r="30" transform="translate(30 35)" fill="#07b9b4"/>
    <g id="Grupo_87" data-name="Grupo 87" transform="translate(-516.001 -427.999)">
      <path id="Trazado_665" data-name="Trazado 665" d="M32.026.007a1.409,1.409,0,0,1-.395.032c.126-.071.263-.022.395-.032" transform="translate(543.975 480.999)" fill="#fff"/>
      <path id="Trazado_666" data-name="Trazado 666" d="M20.167,19.062c-.425-.04-.822-.206-1.242-.273-.071-.039-.154,0-.226-.031a1.892,1.892,0,0,0-1.99,1.861,7.485,7.485,0,0,0,.273,1.442c.029.161.057.32.086.482a.443.443,0,0,1,0,.211.894.894,0,0,1-.669.715c-.655.245-1.3.518-1.942.8a.867.867,0,0,1-1.211-.467,4.516,4.516,0,0,0-1.111-1.661,1.658,1.658,0,0,0-.944-.46,1.249,1.249,0,0,0-.489,0,1.867,1.867,0,0,0-1.247.729c-.35.4-.573.883-.9,1.3a.759.759,0,0,1-.911.255,14.351,14.351,0,0,1-2-.783,3.076,3.076,0,0,1-.49-.319.4.4,0,0,1-.148-.315.737.737,0,0,1,0-.253c.023-.461.228-.881.291-1.334.016-.116.044-.231.066-.346.047-.067,0-.148.033-.216a1.79,1.79,0,0,0-1.968-2.029.306.306,0,0,0-.232,0,11.281,11.281,0,0,0-1.548.185.891.891,0,0,1-.3,0c-.405-.034-.5-.365-.6-.663C.6,17.4.4,16.936.215,16.465A1.686,1.686,0,0,1,.034,15.4a1.412,1.412,0,0,1,.743-.774c.353-.213.7-.428,1.041-.663a2.284,2.284,0,0,0,.676-1.775,2.426,2.426,0,0,0-1.219-1.629c-.263-.182-.534-.355-.79-.545a.739.739,0,0,1-.311-.443,1.5,1.5,0,0,1,0-.383A6.654,6.654,0,0,1,.733,7.767a6.1,6.1,0,0,1,.439-.888.818.818,0,0,1,.566-.417.988.988,0,0,1,.342,0l.469.011c.216.049.436,0,.653.03l.647.011c.228.056.462-.007.692.034l.637.012c.217.048.439-.008.657.03.215,0,.43.007.644.011.288.052.578-.006.866.03a.624.624,0,0,1,.529.444.805.805,0,0,1,.012.234q0,2.592,0,5.182a.493.493,0,0,0,.019.232c0,.084.007.169.011.253.035.068-.013.15.035.216a3.5,3.5,0,0,0,.866,2.146,2.843,2.843,0,0,0,1.975.956c.069.042.151,0,.222.032a3.812,3.812,0,0,0,.694,0c.071-.032.153.01.223-.032a2.844,2.844,0,0,0,1.532-.572,3,3,0,0,0,1.224-2.051c.026-.171.059-.342.089-.513.038-.071,0-.153.03-.225,0-.094.015-.185.015-.279q0-3.609,0-7.218c0-.043,0-.085-.006-.129.051-.141,0-.289.03-.431a5.23,5.23,0,0,1,1.012-2.667,6.71,6.71,0,0,1,1.1-1.119A4.729,4.729,0,0,1,19.141.112c.153-.032.309-.046.464-.069C19.735,0,19.872.06,20,.012h1.5c-.214.293-.408.553-.6.819-.94,1.341-1.938,2.638-2.914,3.953a.3.3,0,0,0-.053.338.391.391,0,0,0,.346.239c.553-.011,1.108,0,1.661-.007.172,0,.215.045.215.215-.006,2.562,0,5.126-.007,7.689a1.568,1.568,0,0,0,.84,1.538,4.747,4.747,0,0,1,.531.355.927.927,0,0,1,.407,1.24,5,5,0,0,1-.219.576c-.264.551-.418,1.145-.686,1.693a.687.687,0,0,1-.39.4,1.991,1.991,0,0,1-.47,0" transform="translate(556.001 480.994)" fill="#fff"/>
      <path id="Trazado_667" data-name="Trazado 667" d="M52.508,6.256c0-.1-.007-.2-.011-.3-.046-.067,0-.148-.032-.218-.05-.285-.082-.574-.152-.854A6.028,6.028,0,0,0,48.571.7,9.776,9.776,0,0,0,46.024.086C45.94.052,45.845.1,45.763.052l-.3-.012c-.188-.032-.381.02-.568-.028H35.982c.39.535.746,1.024,1.1,1.512q1.184,1.614,2.371,3.226c.077.1.2.205.12.326-.1.139-.2.293-.428.288-.725-.017-1.452-.009-2.177-.01-.057.061-.029.137-.029.206q0,3.073,0,6.146a.669.669,0,0,0,.011.193q0,1.66,0,3.32c-.037.175.017.355-.03.53,0,.1-.008.192-.012.288-.037.084.015.179-.034.26a8.494,8.494,0,0,1-.247,1.365,3.611,3.611,0,0,1-.968,1.81.715.715,0,0,0-.172.8,1.181,1.181,0,0,0,1.127.816,4.883,4.883,0,0,0,.731,0c.215-.033.433-.053.645-.1a4.59,4.59,0,0,0,2.868-1.933,5.967,5.967,0,0,0,.9-2.5c.028-.072-.011-.153.03-.223,0-.408,0-.816,0-1.225.007-.508-.022-1.016.015-1.523a7.148,7.148,0,0,1,.984-.022c.759-.012,1.519.014,2.278-.013l.338-.012c.084-.045.18,0,.267-.032l.17-.009c.067-.047.149,0,.218-.034.256-.046.513-.086.768-.139a8.429,8.429,0,0,0,2.86-1.124,5.8,5.8,0,0,0,2.2-2.492,7.738,7.738,0,0,0,.572-2.026c.03-.071-.011-.153.031-.224,0-.112.01-.225.014-.337a7.094,7.094,0,0,0,0-.859m-5.247.907a2.4,2.4,0,0,1-2.277,2.19,22.826,22.826,0,0,1-2.669.052c-.169,0-.394.079-.491-.037-.082-.1-.027-.314-.027-.478q0-1,0-2c0-.775,0-1.55,0-2.324,0-.123.017-.174.16-.172.876.01,1.753,0,2.63.015a3.432,3.432,0,0,1,1.473.355,2.4,2.4,0,0,1,1.2,2.4" transform="translate(542.527 480.994)" fill="#fff"/>
    </g>
  </g>
</svg>
