<svg xmlns="http://www.w3.org/2000/svg" xmlns:xlink="http://www.w3.org/1999/xlink" width="175.631" height="19.735" viewBox="0 0 175.631 19.735">
  <defs>
    <clipPath id="clip-path">
      <rect id="Rectángulo_1386" data-name="Rectángulo 1386" width="175.631" height="19.735" fill="none"/>
    </clipPath>
  </defs>
  <g id="Grupo_86" data-name="Grupo 86" transform="translate(0 0)">
    <g id="Grupo_81" data-name="Grupo 81" transform="translate(0 0)" clip-path="url(#clip-path)">
      <path id="Trazado_643" data-name="Trazado 643" d="M18.893,7.478A12.282,12.282,0,0,0,16.374,0,16.885,16.885,0,0,0,.623,10.8,148.176,148.176,0,0,1,18.712,9.567a12.337,12.337,0,0,0,.18-2.089" transform="translate(0.511 0)" fill="#f4c01e"/>
      <path id="Trazado_644" data-name="Trazado 644" d="M19.212,5.257A148.568,148.568,0,0,0,1.121,6.491a16.871,16.871,0,0,0-1.1,5.121,143.647,143.647,0,0,1,17.169-1.4,12.252,12.252,0,0,0,2.027-4.952" transform="translate(0.013 4.31)" fill="#063b87"/>
      <path id="Trazado_645" data-name="Trazado 645" d="M17.2,7.979A143.24,143.24,0,0,0,.029,9.382C.011,9.7,0,10.021,0,10.343v.408a12,12,0,0,0,7.27,2.444A12.081,12.081,0,0,0,17.2,7.979" transform="translate(0 6.541)" fill="#db2831"/>
      <path id="Trazado_646" data-name="Trazado 646" d="M19.034,2.884h-3.44v9.481h.7V8.831h2.561c1.976,0,3.7-1.03,3.7-3.021V5.783c0-1.829-1.436-2.9-3.521-2.9M21.851,5.85c0,1.409-1.192,2.331-2.952,2.331H16.3V3.534h2.681c1.707,0,2.872.786,2.872,2.289Z" transform="translate(12.785 2.364)" fill="#0f2133"/>
      <path id="Trazado_647" data-name="Trazado 647" d="M21.15,6.311V4.347h-.664v6.908h.664V8.424c0-2.248,1.394-3.454,2.992-3.454h.069V4.24A3.263,3.263,0,0,0,21.15,6.311" transform="translate(16.796 3.474)" fill="#0f2133"/>
      <path id="Trazado_648" data-name="Trazado 648" d="M26.579,4.209a3.569,3.569,0,0,0-3.561,3.616v.027a3.532,3.532,0,0,0,3.534,3.589,3.569,3.569,0,0,0,3.561-3.616V7.8a3.531,3.531,0,0,0-3.534-3.589M29.4,7.852a2.851,2.851,0,0,1-2.817,2.966,2.9,2.9,0,0,1-2.844-2.994V7.8a2.851,2.851,0,0,1,2.817-2.966A2.9,2.9,0,0,1,29.4,7.825Z" transform="translate(18.871 3.451)" fill="#0f2133"/>
      <path id="Trazado_649" data-name="Trazado 649" d="M34,7.131a3.321,3.321,0,0,0-2.844-1.652A3.455,3.455,0,0,0,27.8,9.094v.027a3.431,3.431,0,0,0,3.359,3.589A3.335,3.335,0,0,0,34,11v1.545h.662V2.661H34Zm.04,1.976a2.892,2.892,0,0,1-2.817,2.966,2.779,2.779,0,0,1-2.708-2.979V9.067a2.7,2.7,0,0,1,2.708-2.952A2.883,2.883,0,0,1,34.042,9.08Z" transform="translate(22.79 2.181)" fill="#0f2133"/>
      <path id="Trazado_650" data-name="Trazado 650" d="M38.14,8.294a2.368,2.368,0,0,1-2.4,2.464A2.109,2.109,0,0,1,33.548,8.4V4.3h-.664V8.526a2.631,2.631,0,0,0,2.764,2.843A2.7,2.7,0,0,0,38.14,9.92v1.287H38.8V4.3H38.14Z" transform="translate(26.96 3.524)" fill="#0f2133"/>
      <path id="Trazado_651" data-name="Trazado 651" d="M40.824,10.818a2.906,2.906,0,0,1-2.846-2.994V7.8A2.855,2.855,0,0,1,40.77,4.831a3.106,3.106,0,0,1,2.3,1.139l.475-.488A3.623,3.623,0,0,0,40.783,4.21a3.585,3.585,0,0,0-3.52,3.614v.027A3.542,3.542,0,0,0,43.6,10.074l-.459-.408a3.09,3.09,0,0,1-2.317,1.152" transform="translate(30.55 3.451)" fill="#0f2133"/>
      <path id="Trazado_652" data-name="Trazado 652" d="M44.681,4.21a3.4,3.4,0,0,0-3.278,3.6v.025a3.432,3.432,0,0,0,3.385,3.6,3.636,3.636,0,0,0,2.859-1.3l-.462-.408a3.093,3.093,0,0,1-2.369,1.085A2.738,2.738,0,0,1,42.107,8.1h5.729a1.83,1.83,0,0,0,.013-.271c0-2.044-1.232-3.614-3.168-3.614M42.107,7.5a2.691,2.691,0,0,1,2.546-2.682A2.56,2.56,0,0,1,47.132,7.5Z" transform="translate(33.945 3.451)" fill="#0f2133"/>
      <path id="Trazado_653" data-name="Trazado 653" d="M51.969,7.131a3.321,3.321,0,0,0-2.844-1.652,3.455,3.455,0,0,0-3.359,3.616v.027a3.431,3.431,0,0,0,3.359,3.589A3.335,3.335,0,0,0,51.969,11v1.545h.662V2.661h-.662Zm.04,1.976a2.892,2.892,0,0,1-2.817,2.966,2.779,2.779,0,0,1-2.708-2.979V9.067a2.7,2.7,0,0,1,2.708-2.952A2.883,2.883,0,0,1,52.009,9.08Z" transform="translate(37.521 2.181)" fill="#0f2133"/>
      <rect id="Rectángulo_1381" data-name="Rectángulo 1381" width="0.826" height="0.906" transform="translate(96.756 5.114)" fill="#0f2133"/>
      <rect id="Rectángulo_1382" data-name="Rectángulo 1382" width="0.664" height="6.908" transform="translate(96.838 7.822)" fill="#0f2133"/>
      <path id="Trazado_654" data-name="Trazado 654" d="M58.17,4.209a2.7,2.7,0,0,0-2.491,1.449V4.371h-.664v6.906h.664V7.283a2.368,2.368,0,0,1,2.4-2.466,2.11,2.11,0,0,1,2.193,2.359v4.1h.664V7.053A2.629,2.629,0,0,0,58.17,4.209" transform="translate(45.104 3.451)" fill="#0f2133"/>
      <path id="Trazado_655" data-name="Trazado 655" d="M66.434,11.057A3.194,3.194,0,0,1,63.306,7.7V7.672a3.19,3.19,0,0,1,3.128-3.345A3.77,3.77,0,0,1,69.09,5.5l1.07-1.232a4.948,4.948,0,0,0-3.711-1.478,4.8,4.8,0,0,0-4.89,4.9v.027A4.768,4.768,0,0,0,66.382,12.6a4.892,4.892,0,0,0,3.845-1.68l-1.07-1.085a3.7,3.7,0,0,1-2.723,1.219" transform="translate(50.47 2.291)" fill="#0f2133"/>
      <path id="Trazado_656" data-name="Trazado 656" d="M70.708,4.082A3.738,3.738,0,0,0,66.89,7.82v.027a3.7,3.7,0,0,0,3.791,3.7A3.739,3.739,0,0,0,74.515,7.82V7.793a3.7,3.7,0,0,0-3.807-3.711m2.167,3.765a2.146,2.146,0,0,1-2.167,2.262,2.2,2.2,0,0,1-2.18-2.289V7.793a2.146,2.146,0,0,1,2.153-2.275,2.21,2.21,0,0,1,2.195,2.3Z" transform="translate(54.84 3.346)" fill="#0f2133"/>
      <rect id="Rectángulo_1383" data-name="Rectángulo 1383" width="1.64" height="9.887" transform="translate(131.121 4.843)" fill="#0f2133"/>
      <path id="Trazado_657" data-name="Trazado 657" d="M77.73,4.082A3.738,3.738,0,0,0,73.912,7.82v.027a3.7,3.7,0,0,0,3.791,3.7A3.739,3.739,0,0,0,81.537,7.82V7.793A3.7,3.7,0,0,0,77.73,4.082M79.9,7.847a2.146,2.146,0,0,1-2.167,2.262A2.2,2.2,0,0,1,75.55,7.82V7.793A2.146,2.146,0,0,1,77.7,5.518,2.21,2.21,0,0,1,79.9,7.82Z" transform="translate(60.597 3.346)" fill="#0f2133"/>
      <path id="Trazado_658" data-name="Trazado 658" d="M87.389,4.083a2.879,2.879,0,0,0-2.411,1.259,2.267,2.267,0,0,0-2.138-1.259,2.564,2.564,0,0,0-2.182,1.232V4.23H79.019v7.152h1.638V7.346a1.563,1.563,0,0,1,1.531-1.774c.908,0,1.45.624,1.45,1.734v4.076h1.638V7.346c0-1.15.637-1.774,1.531-1.774.921,0,1.449.61,1.449,1.749v4.062h1.64V6.818c0-1.747-.948-2.735-2.506-2.735" transform="translate(64.784 3.347)" fill="#0f2133"/>
      <path id="Trazado_659" data-name="Trazado 659" d="M90.169,5.249a2.866,2.866,0,0,0-2.439,1.339V2.661H86.093v9.887h1.638V11.436A2.923,2.923,0,0,0,90.169,12.7a3.422,3.422,0,0,0,3.318-3.713V8.958a3.419,3.419,0,0,0-3.318-3.709m1.652,3.736a2.094,2.094,0,0,1-2.044,2.289,2.157,2.157,0,0,1-2.087-2.289V8.958a2.158,2.158,0,0,1,2.087-2.289,2.117,2.117,0,0,1,2.044,2.289Z" transform="translate(70.584 2.181)" fill="#0f2133"/>
      <rect id="Rectángulo_1384" data-name="Rectángulo 1384" width="1.76" height="1.558" transform="translate(165.798 4.923)" fill="#0f2133"/>
      <rect id="Rectángulo_1385" data-name="Rectángulo 1385" width="1.64" height="7.152" transform="translate(165.864 7.578)" fill="#0f2133"/>
      <path id="Trazado_660" data-name="Trazado 660" d="M98.647,4.911a3.208,3.208,0,0,0-2.371-.8,6.117,6.117,0,0,0-2.7.582l.435,1.287a4.96,4.96,0,0,1,2.044-.448c1.15,0,1.774.542,1.774,1.558v.177a5.963,5.963,0,0,0-1.924-.3c-1.747,0-2.952.759-2.952,2.3V9.3a2.284,2.284,0,0,0,2.533,2.207,2.9,2.9,0,0,0,2.328-1.043v.894h1.6V7.118a2.972,2.972,0,0,0-.772-2.207m-.786,3.873c0,.908-.826,1.531-1.909,1.531-.784,0-1.4-.393-1.4-1.083V9.2c0-.744.624-1.192,1.68-1.192a4.56,4.56,0,0,1,1.625.284Z" transform="translate(76.212 3.371)" fill="#0f2133"/>
    </g>
  </g>
</svg>
