<svg xmlns="http://www.w3.org/2000/svg" width="394" height="99.211" viewBox="0 0 394 99.211">
  <g id="Grupo_85" data-name="Grupo 85" transform="translate(-434.378 -1347.203)">
    <path id="Trazado_465" data-name="Trazado 465" d="M118.855,5.976c-.014.166-.041.33-.041.5q-.02,5.374-.035,10.748c0,1.893.016,3.784.025,5.678-.147-.18-.082-.392-.082-.588q-.008-7.858,0-15.719c0-.207-.1-.45.133-.613" transform="translate(639.058 1357.353)" fill="#fcfcfc"/>
    <path id="Trazado_466" data-name="Trazado 466" d="M104.014,22.219a8.6,8.6,0,0,1-.084-.877q0-6.865,0-13.731c.12.123.087.275.087.422q0,7.09-.005,14.186" transform="translate(613.588 1360.172)" fill="#fcfcfc"/>
    <path id="Trazado_467" data-name="Trazado 467" d="M123.351,13.841a1.287,1.287,0,0,1,.262-.057l8.173-.033c-.177.15-.39.087-.588.087q-3.923.008-7.846,0" transform="translate(647.078 1370.76)" fill="#fcfcfc"/>
    <path id="Trazado_468" data-name="Trazado 468" d="M104.845,7.252a12.312,12.312,0,0,1-2.239-.079,11.191,11.191,0,0,1,2.239.079" transform="translate(611.306 1359.384)" fill="#fcfcfc"/>
    <path id="Trazado_469" data-name="Trazado 469" d="M133.507,9.054l-.005-2.22a5.909,5.909,0,0,1,.005,2.22" transform="translate(664.582 1358.832)" fill="#fcfcfc"/>
    <path id="Trazado_470" data-name="Trazado 470" d="M118.422,20.906l1.891,0a4.142,4.142,0,0,1-1.891,0" transform="translate(638.579 1383.097)" fill="#fcfcfc"/>
    <path id="Trazado_471" data-name="Trazado 471" d="M101.9,7.175a9.121,9.121,0,0,1-1.787-.087,7.146,7.146,0,0,1,1.787.087" transform="translate(607.003 1359.246)" fill="#fcfcfc"/>
    <path id="Trazado_472" data-name="Trazado 472" d="M100.565,7.13a8.351,8.351,0,0,1-1.689-.079,6.38,6.38,0,0,1,1.689.079" transform="translate(604.875 1359.174)" fill="#fcfcfc"/>
    <path id="Trazado_473" data-name="Trazado 473" d="M103.071,7.215a8.653,8.653,0,0,1-1.7-.079,6.029,6.029,0,0,1,1.7.079" transform="translate(609.177 1359.315)" fill="#fcfcfc"/>
    <path id="Trazado_475" data-name="Trazado 475" d="M98.668,33.345a2.367,2.367,0,0,1,1.376.008l-1.376-.008" transform="translate(604.516 1404.377)" fill="#fcfcfc"/>
    <path id="Trazado_476" data-name="Trazado 476" d="M118.8,15.338a5.636,5.636,0,0,1-.076,1.37,3.863,3.863,0,0,1,.076-1.37" transform="translate(639.063 1373.496)" fill="#fcfcfc"/>
    <path id="Trazado_477" data-name="Trazado 477" d="M106.614,21.529a1.987,1.987,0,0,1,1.264.008l-1.264-.008" transform="translate(618.218 1384)" fill="#fcfcfc"/>
    <path id="Trazado_478" data-name="Trazado 478" d="M115.6,18.989l1.218-.005a1.814,1.814,0,0,1-1.218.005" transform="translate(633.708 1379.783)" fill="#fcfcfc"/>
    <path id="Trazado_479" data-name="Trazado 479" d="M109.408,29.695c.005-.371.011-.741.019-1.109a1.267,1.267,0,0,1-.019,1.109" transform="translate(623.036 1396.34)" fill="#fcfcfc"/>
    <path id="Trazado_480" data-name="Trazado 480" d="M110.6,5.526a4.254,4.254,0,0,1-.079,1.114,3.074,3.074,0,0,1,.079-1.114" transform="translate(624.94 1356.577)" fill="#fcfcfc"/>
    <path id="Trazado_481" data-name="Trazado 481" d="M96.682,9.615c0,.33,0,.659.005.989a1.271,1.271,0,0,1-.005-.989" transform="translate(600.923 1363.628)" fill="#fcfcfc"/>
    <path id="Trazado_482" data-name="Trazado 482" d="M108.1,33.665l.994,0a1.216,1.216,0,0,1-.994,0" transform="translate(620.782 1405.093)" fill="#fcfcfc"/>
    <path id="Trazado_484" data-name="Trazado 484" d="M98.991,7.1l-.883,0a.97.97,0,0,1,.883,0" transform="translate(603.551 1359.101)" fill="#fcfcfc"/>
    <path id="Trazado_485" data-name="Trazado 485" d="M106.277,35.3a1.1,1.1,0,0,1,0-.918V35.3" transform="translate(617.464 1406.34)" fill="#fcfcfc"/>
    <path id="Trazado_486" data-name="Trazado 486" d="M100.031,34.1a1.314,1.314,0,0,1,.008.929l-.008-.929" transform="translate(606.866 1405.85)" fill="#fcfcfc"/>
    <path id="Trazado_487" data-name="Trazado 487" d="M104.215,25.4a1.09,1.09,0,0,1-.913,0l.913,0" transform="translate(612.507 1390.839)" fill="#fcfcfc"/>
    <path id="Trazado_488" data-name="Trazado 488" d="M97.739,18.5h.768a.8.8,0,0,1-.768,0" transform="translate(602.914 1378.94)" fill="#fcfcfc"/>
    <path id="Trazado_489" data-name="Trazado 489" d="M106.673,25.716l.008-.768a.78.78,0,0,1-.008.768" transform="translate(618.32 1390.067)" fill="#fcfcfc"/>
    <path id="Trazado_490" data-name="Trazado 490" d="M126.768,13.794a1.6,1.6,0,0,1,.689-.082c-.212.166-.458.065-.689.082" transform="translate(652.97 1370.685)" fill="#fcfcfc"/>
    <path id="Trazado_491" data-name="Trazado 491" d="M118.762,16.114a1.418,1.418,0,0,1-.087.673c.022-.223-.079-.466.087-.673" transform="translate(638.996 1374.834)" fill="#fcfcfc"/>
    <path id="Trazado_492" data-name="Trazado 492" d="M101.267,22.045V22.7a.616.616,0,0,1,0-.654" transform="translate(608.835 1385.061)" fill="#fcfcfc"/>
    <path id="Trazado_494" data-name="Trazado 494" d="M108.071,27.282a.965.965,0,0,1-.714-.005l.714.005" transform="translate(619.499 1394.083)" fill="#fcfcfc"/>
    <path id="Trazado_495" data-name="Trazado 495" d="M123.307,16.967a1.25,1.25,0,0,1,.076-.575c-.008.193.071.4-.076.575" transform="translate(646.994 1375.314)" fill="#fcfcfc"/>
    <path id="Trazado_496" data-name="Trazado 496" d="M112.659,22.837c0-.183-.005-.365-.005-.548a.438.438,0,0,1,.005.548" transform="translate(628.633 1385.481)" fill="#fcfcfc"/>
    <path id="Trazado_497" data-name="Trazado 497" d="M106.5,26.76a.709.709,0,0,1-.005-.6c0,.2,0,.4.005.6" transform="translate(617.907 1392.159)" fill="#fcfcfc"/>
    <path id="Trazado_498" data-name="Trazado 498" d="M97.3,28.3c0,.183,0,.362,0,.545a.442.442,0,0,1,0-.545" transform="translate(601.985 1395.846)" fill="#fcfcfc"/>
    <path id="Trazado_499" data-name="Trazado 499" d="M136.294,4.57a1.285,1.285,0,0,1,.079.591c-.155-.18-.073-.392-.079-.591" transform="translate(669.367 1354.928)" fill="#fcfcfc"/>
    <path id="Trazado_500" data-name="Trazado 500" d="M99.491,18.361a.7.7,0,0,1,.6,0h-.6" transform="translate(605.936 1378.594)" fill="#fcfcfc"/>
    <path id="Trazado_501" data-name="Trazado 501" d="M127.183,13.758a1.051,1.051,0,0,1,.564-.087c-.169.153-.373.071-.564.087" transform="translate(653.686 1370.614)" fill="#fcfcfc"/>
    <path id="Trazado_502" data-name="Trazado 502" d="M104.062,13.773a.929.929,0,0,1-.087-.561c.155.169.068.373.087.561" transform="translate(613.656 1369.83)" fill="#fcfcfc"/>
    <path id="Trazado_503" data-name="Trazado 503" d="M133.547,6.9a1.042,1.042,0,0,1-.082-.561c.147.169.065.373.082.561" transform="translate(664.51 1357.985)" fill="#fcfcfc"/>
    <path id="Trazado_504" data-name="Trazado 504" d="M110.566,13.172a1.023,1.023,0,0,1-.079.583c.011-.2-.074-.406.079-.583" transform="translate(624.872 1369.761)" fill="#fcfcfc"/>
    <path id="Trazado_505" data-name="Trazado 505" d="M136.364,3.644a1.135,1.135,0,0,1-.079.561c.014-.188-.063-.39.079-.561" transform="translate(669.366 1353.332)" fill="#fcfcfc"/>
    <path id="Trazado_506" data-name="Trazado 506" d="M108.143,16.37a.974.974,0,0,1-.575.084c.174-.158.381-.071.575-.084" transform="translate(619.863 1375.255)" fill="#fcfcfc"/>
    <path id="Trazado_507" data-name="Trazado 507" d="M139.843,8.358a1.125,1.125,0,0,1,.561.079c-.188-.014-.39.063-.561-.079" transform="translate(675.516 1361.454)" fill="#fcfcfc"/>
    <path id="Trazado_508" data-name="Trazado 508" d="M133.465,8.547a1.106,1.106,0,0,1,.082-.578c-.011.2.071.4-.082.578" transform="translate(664.506 1360.79)" fill="#fcfcfc"/>
    <path id="Trazado_509" data-name="Trazado 509" d="M101.637,20.245a.9.9,0,0,1-.084.558c.016-.188-.068-.39.084-.558" transform="translate(609.475 1381.957)" fill="#fcfcfc"/>
    <path id="Trazado_510" data-name="Trazado 510" d="M114.2,18.7a.978.978,0,0,1,.583.082c-.2-.011-.406.076-.583-.082" transform="translate(631.306 1379.284)" fill="#fcfcfc"/>
    <path id="Trazado_511" data-name="Trazado 511" d="M107.274,16.452a.953.953,0,0,1-.575-.084c.193.014.4-.071.575.084" transform="translate(618.364 1375.253)" fill="#fcfcfc"/>
    <path id="Trazado_512" data-name="Trazado 512" d="M148.6,50.16c-1.1-.1-2.128-.534-3.212-.706-.183-.1-.4,0-.583-.079a4.889,4.889,0,0,0-5.146,4.814,19.345,19.345,0,0,0,.7,3.727c.076.414.147.828.221,1.245a1.151,1.151,0,0,1,.005.545,2.318,2.318,0,0,1-1.73,1.853c-1.692.632-3.362,1.338-5.021,2.057a2.24,2.24,0,0,1-3.133-1.2,11.649,11.649,0,0,0-2.871-4.3,4.324,4.324,0,0,0-2.441-1.191,3.236,3.236,0,0,0-1.264-.005A4.823,4.823,0,0,0,120.9,58.8c-.9,1.033-1.482,2.286-2.335,3.354a1.959,1.959,0,0,1-2.354.659,36.889,36.889,0,0,1-5.168-2.024,8.084,8.084,0,0,1-1.267-.825,1.031,1.031,0,0,1-.384-.815,2.043,2.043,0,0,1,0-.657c.063-1.191.591-2.278.755-3.446.041-.3.114-.6.172-.9.123-.172,0-.381.087-.561.3-3.381-1.956-5.174-5.089-5.247a.814.814,0,0,0-.6,0,29.934,29.934,0,0,0-4,.479,2.289,2.289,0,0,1-.771,0c-1.049-.087-1.3-.943-1.539-1.711-.392-1.253-.915-2.449-1.4-3.664a4.367,4.367,0,0,1-.469-2.757,3.64,3.64,0,0,1,1.923-2c.91-.553,1.817-1.106,2.692-1.716a5.9,5.9,0,0,0,1.746-4.588c-.305-2-1.632-3.16-3.155-4.212-.678-.471-1.379-.915-2.041-1.408a1.907,1.907,0,0,1-.8-1.144,3.876,3.876,0,0,1-.005-.989,17.322,17.322,0,0,1,1.452-3.675,15.78,15.78,0,0,1,1.136-2.3,2.106,2.106,0,0,1,1.463-1.076,2.479,2.479,0,0,1,.885,0c.4.008.806.016,1.21.027.558.125,1.131-.014,1.689.076l1.673.03c.591.144,1.2-.022,1.787.087q.826.016,1.648.03c.561.128,1.136-.019,1.7.079.556.011,1.109.019,1.665.027.744.136,1.5-.011,2.239.082a1.608,1.608,0,0,1,1.368,1.144,2.071,2.071,0,0,1,.03.608q0,6.7.005,13.4a1.288,1.288,0,0,0,.046.6c.011.218.019.436.027.654.09.177-.033.387.09.558a9.068,9.068,0,0,0,2.239,5.549,7.348,7.348,0,0,0,5.105,2.471c.18.109.392,0,.575.084a10.131,10.131,0,0,0,1.8,0c.183-.084.392.025.572-.084a7.361,7.361,0,0,0,3.961-1.479,7.761,7.761,0,0,0,3.163-5.3c.068-.444.152-.885.232-1.327.1-.185,0-.4.076-.583.014-.24.041-.479.041-.719q0-9.329,0-18.662c0-.112-.008-.223-.014-.332.131-.365,0-.746.079-1.114a13.531,13.531,0,0,1,2.615-6.9A17.426,17.426,0,0,1,140.3,3.7a12.209,12.209,0,0,1,5.65-2.536c.4-.082.8-.117,1.2-.177.335-.1.689.046,1.022-.082h3.879c-.55.757-1.054,1.43-1.536,2.117-2.43,3.465-5.013,6.822-7.533,10.219a.772.772,0,0,0-.139.877,1,1,0,0,0,.9.616c1.43-.027,2.863.011,4.294-.019.444-.008.556.12.556.558-.014,6.626.005,13.254-.019,19.879a4.056,4.056,0,0,0,2.171,3.978,12.418,12.418,0,0,1,1.373.918,2.4,2.4,0,0,1,1.054,3.207,12.4,12.4,0,0,1-.569,1.487c-.681,1.425-1.079,2.961-1.771,4.381a1.794,1.794,0,0,1-1.008,1.03,5.059,5.059,0,0,1-1.218.005" transform="translate(600.704 1348.612)" fill="#07b9b4"/>
    <path id="Trazado_513" data-name="Trazado 513" d="M127.885,39.163a16.9,16.9,0,0,1,2.711-1.67,2.551,2.551,0,0,0,.019-1.112c-.417-1.03-.836-2.06-1.25-3.092-.343-.85-.747-1.046-1.645-.861a9.6,9.6,0,0,1-2,.4,1.087,1.087,0,0,1-.714-.005,2.6,2.6,0,0,1-2.444-2.441.788.788,0,0,1-.005-.6,5.965,5.965,0,0,1,.586-2.536,2.083,2.083,0,0,0,.011-.768c-.142-.163-.221-.371-.439-.482a15.051,15.051,0,0,0-3.585-1.485,1.221,1.221,0,0,0-1.25.354,17.548,17.548,0,0,0-1.188,1.558,2.843,2.843,0,0,1-1.817,1.275,1.625,1.625,0,0,1-.913,0,2.56,2.56,0,0,1-2.106-1.237c-.381-.558-.662-1.185-1.013-1.768a1.043,1.043,0,0,0-1.379-.567,28.681,28.681,0,0,0-3.288,1.122,1.215,1.215,0,0,0-.809,1.291,8.733,8.733,0,0,0,.4,2.3,2.963,2.963,0,0,1-2.787,3.332,17.457,17.457,0,0,1-2.209-.411c-.646-.125-1.373-.4-1.812.313A11.48,11.48,0,0,0,97.435,35.6a1.267,1.267,0,0,0,0,.545c.1.61.594.885,1.024,1.221.621.485,1.4.76,1.863,1.455a2.789,2.789,0,0,1-.662,3.907c-.572.46-1.223.823-1.836,1.234a1.443,1.443,0,0,0-.643,1.654c.286,1.09.853,2.073,1.169,3.157a.921.921,0,0,0,.967.643c.689.011,1.335-.286,2.021-.24a3.766,3.766,0,0,1,1.376.005c1.37.259,2.209.926,2.34,2.223a1.763,1.763,0,0,1,.005.929,8.051,8.051,0,0,1-.354,1.7c-.43,1.408-.207,1.853.888,2.329.806.351,1.621.692,2.452.975,1.087.371,1.381.24,2.019-.7.33-.49.648-.986,1.005-1.455a2.865,2.865,0,0,1,4.362-.049,12.885,12.885,0,0,1,1.468,2.308c.074.161.169.4.392.4a3.848,3.848,0,0,0,1.7-.144,25.038,25.038,0,0,1,2.392-.981,1.27,1.27,0,0,0,.91-1.695,8.981,8.981,0,0,1-.4-1.929,1.644,1.644,0,0,1,0-.918,2.643,2.643,0,0,1,3.2-2.406c.646.139,1.291.292,1.937.439a3.2,3.2,0,0,0,.994-.005,1.8,1.8,0,0,0,.716-.67,24.9,24.9,0,0,0,1.362-3c.292-.76.2-1.041-.469-1.586-.542-.441-1.174-.755-1.716-1.2a2.9,2.9,0,0,1-.038-4.593M113.669,47.3a6.519,6.519,0,0,1-6.16-6.345,6.329,6.329,0,0,1,6.359-6.252,6.228,6.228,0,0,1,6.261,6.628,6.293,6.293,0,0,1-6.459,5.969" transform="translate(601.848 1388.542)" fill="#07b9b4"/>
    <path id="Trazado_514" data-name="Trazado 514" d="M161.432,17.053c-.008-.256-.019-.515-.027-.774-.12-.174-.005-.381-.082-.561-.128-.738-.213-1.485-.392-2.209-1.319-5.3-4.792-8.7-9.68-10.821A25.385,25.385,0,0,0,144.667,1.1c-.215-.09-.46.041-.673-.087-.259-.008-.518-.019-.776-.03-.488-.084-.986.049-1.471-.076H118.7c1.011,1.384,1.929,2.648,2.855,3.909q3.057,4.172,6.13,8.342c.2.267.526.531.311.845-.251.36-.509.755-1.106.744-1.877-.044-3.754-.022-5.631-.027-.147.161-.074.354-.074.531q-.008,7.948,0,15.894a1.78,1.78,0,0,0,.025.5q0,4.295,0,8.584c-.093.452.046.918-.076,1.37-.011.248-.022.5-.03.746-.1.215.038.46-.09.673a21.822,21.822,0,0,1-.638,3.528,9.321,9.321,0,0,1-2.5,4.68,1.849,1.849,0,0,0-.444,2.062,3.053,3.053,0,0,0,2.912,2.109,12.552,12.552,0,0,0,1.893,0c.556-.084,1.12-.133,1.667-.259a11.878,11.878,0,0,0,7.416-5,15.4,15.4,0,0,0,2.327-6.468c.074-.185-.027-.4.079-.575,0-1.057-.005-2.111.008-3.168.019-1.313-.054-2.626.041-3.937a18.029,18.029,0,0,1,2.544-.057c1.964-.03,3.928.038,5.89-.033l.874-.033c.218-.114.466.008.689-.082l.441-.025c.172-.12.384,0,.564-.087.662-.12,1.327-.221,1.983-.36a21.8,21.8,0,0,0,7.4-2.91,14.976,14.976,0,0,0,5.68-6.443,20.024,20.024,0,0,0,1.479-5.236c.079-.185-.027-.4.079-.578.014-.291.024-.583.038-.872a18.328,18.328,0,0,0-.005-2.223M147.865,19.4c-.292,3.4-2.809,5.239-5.887,5.661a58.3,58.3,0,0,1-6.9.133c-.436.008-1.016.207-1.269-.1-.213-.253-.071-.812-.071-1.237q0-2.587,0-5.174c0-2,.008-4.007-.005-6.01,0-.319.044-.45.414-.444,2.267.025,4.533-.005,6.8.038a8.926,8.926,0,0,1,3.809.918,6.224,6.224,0,0,1,3.114,6.209" transform="translate(636.651 1348.61)" fill="#222223"/>
    <path id="Trazado_515" data-name="Trazado 515" d="M117.993,49.155q0,11.193,0,22.386c.008,3.8,0,7.609.106,11.412a12.917,12.917,0,0,0,2.6,7.337,13.632,13.632,0,0,1,.861,1.291,2.376,2.376,0,0,1-2.032,3.6,15.833,15.833,0,0,1-10.543-3.74A16.91,16.91,0,0,1,102.974,81.2a16.288,16.288,0,0,1-.242-2.771q0-31.47,0-62.938V15.1c-.005-.959-.065-1.022-1.011-1.022-4.629,0-9.26-.014-13.889.016a1.452,1.452,0,0,1-1.55-.877c-1.226-2.31-2.525-4.58-3.689-6.923A29.03,29.03,0,0,1,80.825,2.04c-.289-.921-.158-1.112.785-1.112q26.779,0,53.555,0a8.648,8.648,0,0,1,5.7,1.88,9.118,9.118,0,0,1,3.553,7.067c.019,1.112,0,2.226,0,3.34,0,.73-.142.869-.885.869H118.824c-1.057,0-1.1.033-1.09,1.1q.033,8.606.065,17.207.016,8.381,0,16.763h.191" transform="translate(573.515 1348.645)" fill="#222223"/>
    <path id="Trazado_516" data-name="Trazado 516" d="M62.687,28.026V1.963C62.687,1,62.761.93,63.744.93q12.272,0,24.544,0A28.74,28.74,0,0,1,99.912,2.889c5.073,2.209,8.813,5.737,10.17,11.3a21.387,21.387,0,0,1-.06,10.679c-1.354,5.133-4.7,8.549-9.353,10.848-.084.041-.169.076-.253.117-.657.324-.744.618-.327,1.223,1.673,2.43,3.359,4.852,5.029,7.285q3.335,4.867,6.653,9.742c.153.223.289.444.161.716-.142.3-.417.321-.711.321q-7.781,0-15.561.005a.887.887,0,0,1-.817-.458c-1.545-2.316-3.147-4.6-4.64-6.944-1.833-2.88-3.8-5.672-5.658-8.53a.852.852,0,0,0-.817-.43c-1.711.019-3.422.008-5.133.011-.779,0-.9.123-.9.91v14.48c0,.872-.082.954-.956.954H63.681c-.91,0-.994-.082-.994-.973V28.026m15.006-7.59q0,2.869,0,5.737c0,.657.18.855.809.853,3.217,0,6.435.027,9.65-.044A8.2,8.2,0,0,0,93.69,25.06c2.4-2.136,2.651-6.582.376-8.849a7.558,7.558,0,0,0-4.966-2.2c-3.547-.245-7.1-.068-10.652-.106-.564-.005-.752.215-.752.8-.005,1.912,0,3.825,0,5.737" transform="translate(542.473 1348.644)" fill="#222223"/>
    <path id="Trazado_517" data-name="Trazado 517" d="M67.247,45.669c-3.217,0-6.435.011-9.652-.011a.954.954,0,0,0-1.041.7c-1.087,2.779-2.212,5.544-3.294,8.326a.943.943,0,0,1-1.032.692c-4.612-.019-9.225-.011-13.837-.014-.924,0-1.082-.256-.714-1.122C40.1,48.5,42.559,42.776,44.951,37.025c1.5-3.593,3.076-7.151,4.547-10.756,1.515-3.708,3.16-7.358,4.672-11.066,1.477-3.621,3.059-7.2,4.569-10.8.42-1.008.845-2.016,1.245-3.035a.783.783,0,0,1,.828-.578q6.641.016,13.281,0a.8.8,0,0,1,.845.561c1.85,4.392,3.74,8.761,5.552,13.169,1.471,3.582,3.029,7.13,4.525,10.7,1.531,3.659,3.122,7.293,4.623,10.963,1.507,3.691,3.119,7.334,4.653,11.012.983,2.362,1.983,4.716,2.975,7.072.341.809.153,1.092-.727,1.092-4.724,0-9.448-.008-14.169.014a.949.949,0,0,1-1.03-.706c-1.092-2.738-2.226-5.457-3.307-8.2a1.092,1.092,0,0,0-1.191-.817c-3.2.033-6.4.016-9.6.016m.022-11.677q2.48,0,4.964,0c.842,0,1.022-.281.711-1.076q-2.489-6.338-4.975-12.676c-.117-.3-.207-.629-.6-.646-.428-.019-.534.33-.657.643-.809,2.051-1.61,4.106-2.425,6.157-.866,2.188-1.749,4.373-2.621,6.56-.3.755-.114,1.035.692,1.038q2.456,0,4.909,0" transform="translate(499.031 1348.403)" fill="#222223"/>
    <path id="Trazado_518" data-name="Trazado 518" d="M24.858,55.78A41.02,41.02,0,0,1,7.572,52.116a32.215,32.215,0,0,1-6.22-3.787A14.228,14.228,0,0,1,.211,47.286c-.349-.335-.218-.657.052-.975q1.982-2.337,3.956-4.68,1.6-1.9,3.2-3.787c.5-.586.659-.6,1.291-.131A28.4,28.4,0,0,0,19.333,42.8a21.393,21.393,0,0,0,8.233.512,5.578,5.578,0,0,0,2.566-1.008,3.081,3.081,0,0,0-.033-4.966,13.489,13.489,0,0,0-4.928-2.06c-3.147-.869-6.369-1.452-9.486-2.449a27.658,27.658,0,0,1-8.04-3.746A12.67,12.67,0,0,1,2.36,19.465,16.477,16.477,0,0,1,4.371,9.54,16.782,16.782,0,0,1,9.122,4.448,20.614,20.614,0,0,1,19.921.754,37.766,37.766,0,0,1,36.48,2.863a33.023,33.023,0,0,1,7.805,4.422c.425.308.428.632.133,1.041q-2.166,3-4.307,6.026c-.738,1.043-1.447,2.109-2.177,3.155-.376.537-.61.575-1.158.215a45.079,45.079,0,0,0-4.37-2.444A21.552,21.552,0,0,0,21.618,12.9a6.008,6.008,0,0,0-2.817.785,3.144,3.144,0,0,0-.218,5.372A14.211,14.211,0,0,0,23.019,20.8c3.114.853,6.307,1.392,9.393,2.359a29.136,29.136,0,0,1,6.081,2.46c3.13,1.831,5.928,4.059,7.021,7.7A16.7,16.7,0,0,1,43.7,47.537c-2.337,3.735-5.9,5.746-9.971,7.012a30.613,30.613,0,0,1-8.87,1.231" transform="translate(434.379 1348.079)" fill="#222223"/>
    <path id="Trazado_519" data-name="Trazado 519" d="M43.7.93H66.684c.185,0,.37,0,.556.005a.558.558,0,0,1,.613.629c0,.351,0,.706,0,1.057V13.206c0,.8-.1.9-.9.9q-7.2,0-14.4,0c-.877,0-.954.076-.954.956q0,19.55,0,39.105c0,1.013-.054,1.065-1.071,1.065H37.424c-.8,0-.861-.06-.861-.858V15.494c0-.147,0-.3,0-.444-.011-.8-.153-.943-.94-.943q-7.589,0-15.177,0c-.131,0-.259,0-.39,0-.46.008-.689-.2-.678-.673.011-.594,0-1.188,0-1.782q0-4.9,0-9.8c0-.681.191-.891.88-.913C20.781.916,21.3.93,21.825.93H43.7" transform="translate(467.794 1348.644)" fill="#222223"/>
    <path id="Trazado_520" data-name="Trazado 520" d="M134.183,51.8c-1.379,0-2.637-.008-3.9,0-.283,0-.376-.2-.5-.37q-3.343-4.516-6.675-9.045a.846.846,0,0,0-.776-.4c-1.9.019-3.792.027-5.688-.005-.515-.008-.61.163-.608.635.022,2.877,0,5.754.019,8.631,0,.428-.1.586-.548.564-.763-.038-1.526-.035-2.288,0-.411.019-.531-.1-.529-.52.019-2.822.011-5.645.011-8.464q0-8.161-.008-16.319c0-.4.049-.58.529-.578,3.719.027,7.44-.068,11.156.057a9.314,9.314,0,0,1,6.767,2.768c2.16,2.332,2.373,5.111,1.365,8.007-.875,2.515-2.9,3.749-5.321,4.46-.711.21-.711.2-.275.782,1.419,1.883,2.882,3.735,4.242,5.658.962,1.359,2.005,2.662,3.029,4.141M116.044,34.021c0,1.466.008,2.931-.005,4.4-.005.349.079.49.46.488,2.509-.014,5.021.044,7.527-.027a5.69,5.69,0,0,0,4.648-2.076,4.647,4.647,0,0,0-.332-6.092,5.694,5.694,0,0,0-3.5-1.425c-2.8-.232-5.609-.049-8.413-.109-.406-.008-.39.226-.39.5.005,1.447,0,2.9,0,4.343" transform="translate(628.691 1391.739)" fill="#222223"/>
    <path id="Trazado_521" data-name="Trazado 521" d="M88.964,51.923c-1.171,0-2.267-.008-3.362.005-.346,0-.37-.267-.458-.471-.836-1.9-1.67-3.8-2.476-5.71a.742.742,0,0,0-.817-.534q-6.052.029-12.1,0a.779.779,0,0,0-.853.569c-.815,1.907-1.678,3.8-2.5,5.7a.628.628,0,0,1-.7.452c-.817-.03-1.637-.033-2.455,0-.46.016-.531-.079-.335-.509,1.474-3.258,2.926-6.528,4.392-9.789,2.226-4.953,4.479-9.895,6.658-14.869.316-.725.651-1,1.408-.9a10.656,10.656,0,0,0,1.616.008.461.461,0,0,1,.509.321c1.5,3.593,3.22,7.089,4.768,10.66,1.591,3.672,3.3,7.3,4.92,10.952.594,1.335,1.163,2.678,1.787,4.116M75.825,30.281a2.313,2.313,0,0,0-.125.2c-1.673,3.757-3.337,7.516-5.021,11.271-.2.455.063.4.335.4,3.179,0,6.359-.008,9.538.008.471,0,.471-.144.308-.509-1.152-2.591-2.288-5.187-3.433-7.781-.523-1.182-1.057-2.362-1.6-3.58" transform="translate(542.673 1391.616)" fill="#222223"/>
    <path id="Trazado_522" data-name="Trazado 522" d="M88.231,52.537a12.065,12.065,0,0,1-8.9-3.795,13.168,13.168,0,0,1-3.626-8.29,13.494,13.494,0,0,1,3.351-10.344,13.683,13.683,0,0,1,4.7-3.3,12.628,12.628,0,0,1,8.96-.447,13.754,13.754,0,0,1,5.819,3.555c.185.183.161.286.008.45-.64.673-1.28,1.346-1.9,2.038-.237.264-.349.055-.482-.071A13.7,13.7,0,0,0,93.451,30.3a9.478,9.478,0,0,0-14.235,7.527,10.522,10.522,0,0,0,2.441,8.285,10.24,10.24,0,0,0,2.487,2.035,8.78,8.78,0,0,0,8.113.553A11.483,11.483,0,0,0,96.2,45.963c.37-.368.583-.335.913.027.485.537,1.022,1.027,1.55,1.523.193.183.183.286.005.488a13.145,13.145,0,0,1-10.437,4.536" transform="translate(564.842 1391.457)" fill="#222223"/>
    <path id="Trazado_523" data-name="Trazado 523" d="M53.426,38.845c0-4.1.005-8.206-.014-12.309,0-.485.109-.618.61-.616q8.672.029,17.349,0c.458,0,.613.106.586.58a18.614,18.614,0,0,0,0,2.171c.022.436-.136.515-.537.512q-6.976-.016-13.946-.008c-.706,0-.706,0-.706.725,0,2.414.014,4.828-.011,7.239-.005.477.142.583.6.58,4.108-.016,8.217,0,12.328-.022.515,0,.678.147.646.654a18.587,18.587,0,0,0,0,1.948c.016.4-.131.5-.512.5-2.269-.014-4.539-.005-6.805-.005-1.9,0-3.792.011-5.691-.008-.436-.005-.559.117-.559.558.019,3.286,0,6.571.025,9.857.005.509-.147.627-.621.6a19.3,19.3,0,0,0-2.174,0c-.485.03-.575-.15-.575-.6.019-4.122.014-8.241.014-12.363" transform="translate(526.48 1391.745)" fill="#222223"/>
    <path id="Trazado_524" data-name="Trazado 524" d="M148.006,25.935a1.616,1.616,0,0,1-.335.744c-2.207,3.193-4.438,6.367-6.606,9.581-1.139,1.692-2.272,3.389-3.438,5.062a1.262,1.262,0,0,0-.18.79c0,3.027-.011,6.053.014,9.08,0,.49-.123.646-.618.616a16.9,16.9,0,0,0-2.229,0c-.529.035-.6-.166-.6-.627.019-3.008.005-6.018.016-9.026a1.635,1.635,0,0,0-.294-.978q-4.981-7.249-9.936-14.515a1.388,1.388,0,0,1-.316-.73c1.256,0,2.5,0,3.743,0a.388.388,0,0,1,.373.183c2.3,3.659,4.822,7.173,7.2,10.783a11.89,11.89,0,0,1,.632,1.041c.223.43.392.493.673.027,1.079-1.8,2.3-3.5,3.482-5.231,1.376-2.027,2.8-4.024,4.106-6.1a1.347,1.347,0,0,1,1.411-.716c.945.044,1.9.011,2.9.011" transform="translate(647.313 1391.744)" fill="#222223"/>
    <path id="Trazado_527" data-name="Trazado 527" d="M147.7.057a11.121,11.121,0,0,0-11.366,11.407,11.3,11.3,0,1,0,22.593-.087C158.873,5.029,154.37.079,147.7.057m-.125,20.689c-5.086.03-9-3.877-9.023-9.287a9.054,9.054,0,0,1,9.137-9.328,8.953,8.953,0,0,1,9.053,9.255,9.053,9.053,0,0,1-9.167,9.361" transform="translate(669.456 1347.146)" fill="#222223"/>
    <path id="Trazado_528" data-name="Trazado 528" d="M147.405,10.6c-.218-.327-.191-.439.147-.643a4.308,4.308,0,0,0,.8-6.525,5.179,5.179,0,0,0-3.732-1.482c-1.858-.052-3.719-.008-5.577-.019-.3,0-.417.063-.417.392q.016,5.872,0,11.747c0,.324.1.411.414.406.836-.019,1.675-.022,2.512,0,.346.011.444-.1.436-.441-.019-.945.005-1.893-.014-2.839-.005-.33.074-.474.433-.45a9.129,9.129,0,0,0,1.28,0,.684.684,0,0,1,.714.384c.61,1.013,1.251,2.008,1.877,3.01a.55.55,0,0,0,.518.335c.983-.019,1.967-.008,3.07-.008-.858-1.349-1.643-2.621-2.468-3.869m-2.893-2.414a16.792,16.792,0,0,1-2.22.084.506.506,0,0,1-.2-.025.5.5,0,0,1-.038-.237c.011-.518,0-1.038,0-1.558,0-.5.014-1-.005-1.5-.014-.327.079-.479.436-.458a15.122,15.122,0,0,1,2.22.09,2.3,2.3,0,0,1,.861.365,1.8,1.8,0,0,1,.6,1.474,1.772,1.772,0,0,1-1.659,1.765" transform="translate(673.424 1350.362)" fill="#222223"/>
  </g>
</svg>
