<?xml version="1.0" encoding="UTF-8" standalone="no"?>
<!DOCTYPE svg PUBLIC "-//W3C//DTD SVG 1.1//EN"
 "http://www.w3.org/Graphics/SVG/1.1/DTD/svg11.dtd">
<!-- Generated by graphviz version 2.47.0 (20210316.0004)
 -->
<!-- Title: dependencies Pages: 1 -->
<svg width="1836pt" height="211pt"
 viewBox="0.00 0.00 1836.00 211.00" xmlns="http://www.w3.org/2000/svg" xmlns:xlink="http://www.w3.org/1999/xlink">
<g id="graph0" class="graph" transform="scale(1 1) rotate(0) translate(4 207)">
<title>dependencies</title>
<polygon fill="white" stroke="transparent" points="-4,4 -4,-207 1832,-207 1832,4 -4,4"/>
<text text-anchor="start" x="893.01" y="-42.4" font-family="Times-12" font-weight="bold" font-size="14.00">Legend</text>
<polygon fill="#ffffb3" stroke="transparent" points="680,-10 680,-30 700,-30 700,-10 680,-10"/>
<text text-anchor="start" x="703.63" y="-15.4" font-family="Times-12" font-size="14.00"> &#160;Declarations</text>
<polygon fill="#8dd3c7" stroke="transparent" points="793,-10 793,-30 813,-30 813,-10 793,-10"/>
<text text-anchor="start" x="816.73" y="-15.4" font-family="Times-12" font-size="14.00"> &#160;Module</text>
<polygon fill="#80b1d3" stroke="transparent" points="879,-10 879,-30 899,-30 899,-10 879,-10"/>
<text text-anchor="start" x="902.78" y="-15.4" font-family="Times-12" font-size="14.00"> &#160;Bootstrap</text>
<polygon fill="#fdb462" stroke="transparent" points="976,-10 976,-30 996,-30 996,-10 976,-10"/>
<text text-anchor="start" x="999.67" y="-15.4" font-family="Times-12" font-size="14.00"> &#160;Providers</text>
<polygon fill="#fb8072" stroke="transparent" points="1072,-10 1072,-30 1092,-30 1092,-10 1072,-10"/>
<text text-anchor="start" x="1095.73" y="-15.4" font-family="Times-12" font-size="14.00"> &#160;Exports</text>
<g id="clust1" class="cluster">
<title>cluster_AdminModule</title>
<polygon fill="none" stroke="black" stroke-dasharray="1,5" points="8,-70 8,-195 1820,-195 1820,-70 8,-70"/>
</g>
<g id="clust2" class="cluster">
<title>cluster_AdminModule_declarations</title>
<polygon fill="none" stroke="black" points="416,-78 416,-130 1812,-130 1812,-78 416,-78"/>
</g>
<g id="clust12" class="cluster">
<title>cluster_AdminModule_imports</title>
<polygon fill="none" stroke="black" points="16,-78 16,-130 408,-130 408,-78 16,-78"/>
</g>
<!-- AdminComponent -->
<g id="node1" class="node">
<title>AdminComponent</title>
<polygon fill="#ffffb3" stroke="black" points="1804.22,-122 1683.78,-122 1683.78,-86 1804.22,-86 1804.22,-122"/>
<text text-anchor="middle" x="1744" y="-99.8" font-family="Times,serif" font-size="14.00">AdminComponent</text>
</g>
<!-- AdminModule -->
<g id="node10" class="node">
<title>AdminModule</title>
<polygon fill="#8dd3c7" stroke="black" points="929.44,-187 926.44,-191 905.44,-191 902.44,-187 830.56,-187 830.56,-151 929.44,-151 929.44,-187"/>
<text text-anchor="middle" x="880" y="-164.8" font-family="Times,serif" font-size="14.00">AdminModule</text>
</g>
<!-- AdminComponent&#45;&gt;AdminModule -->
<g id="edge1" class="edge">
<title>AdminComponent&#45;&gt;AdminModule</title>
<path fill="none" stroke="black" d="M1744,-122.09C1744,-145.13 1744,-182 1744,-182 1744,-182 939.24,-182 939.24,-182"/>
<polygon fill="black" stroke="black" points="939.24,-178.5 929.24,-182 939.24,-185.5 939.24,-178.5"/>
</g>
<!-- IntegrationsComponent -->
<g id="node2" class="node">
<title>IntegrationsComponent</title>
<polygon fill="#ffffb3" stroke="black" points="1666.2,-122 1517.8,-122 1517.8,-86 1666.2,-86 1666.2,-122"/>
<text text-anchor="middle" x="1592" y="-99.8" font-family="Times,serif" font-size="14.00">IntegrationsComponent</text>
</g>
<!-- IntegrationsComponent&#45;&gt;AdminModule -->
<g id="edge2" class="edge">
<title>IntegrationsComponent&#45;&gt;AdminModule</title>
<path fill="none" stroke="black" d="M1592,-122.28C1592,-143.32 1592,-175 1592,-175 1592,-175 939.22,-175 939.22,-175"/>
<polygon fill="black" stroke="black" points="939.22,-171.5 929.22,-175 939.22,-178.5 939.22,-171.5"/>
</g>
<!-- InvitationsComponent -->
<g id="node3" class="node">
<title>InvitationsComponent</title>
<polygon fill="#ffffb3" stroke="black" points="1499.71,-122 1358.29,-122 1358.29,-86 1499.71,-86 1499.71,-122"/>
<text text-anchor="middle" x="1429" y="-99.8" font-family="Times,serif" font-size="14.00">InvitationsComponent</text>
</g>
<!-- InvitationsComponent&#45;&gt;AdminModule -->
<g id="edge3" class="edge">
<title>InvitationsComponent&#45;&gt;AdminModule</title>
<path fill="none" stroke="black" d="M1429,-122.11C1429,-141.34 1429,-169 1429,-169 1429,-169 939.69,-169 939.69,-169"/>
<polygon fill="black" stroke="black" points="939.69,-165.5 929.69,-169 939.69,-172.5 939.69,-165.5"/>
</g>
<!-- PermissionsComponent -->
<g id="node4" class="node">
<title>PermissionsComponent</title>
<polygon fill="#ffffb3" stroke="black" points="1340.5,-122 1191.5,-122 1191.5,-86 1340.5,-86 1340.5,-122"/>
<text text-anchor="middle" x="1266" y="-99.8" font-family="Times,serif" font-size="14.00">PermissionsComponent</text>
</g>
<!-- PermissionsComponent&#45;&gt;AdminModule -->
<g id="edge4" class="edge">
<title>PermissionsComponent&#45;&gt;AdminModule</title>
<path fill="none" stroke="black" d="M1266,-122.02C1266,-139.37 1266,-163 1266,-163 1266,-163 939.28,-163 939.28,-163"/>
<polygon fill="black" stroke="black" points="939.28,-159.5 929.28,-163 939.28,-166.5 939.28,-159.5"/>
</g>
<!-- RolesComponent -->
<g id="node5" class="node">
<title>RolesComponent</title>
<polygon fill="#ffffb3" stroke="black" points="1173.72,-122 1060.28,-122 1060.28,-86 1173.72,-86 1173.72,-122"/>
<text text-anchor="middle" x="1117" y="-99.8" font-family="Times,serif" font-size="14.00">RolesComponent</text>
</g>
<!-- RolesComponent&#45;&gt;AdminModule -->
<g id="edge5" class="edge">
<title>RolesComponent&#45;&gt;AdminModule</title>
<path fill="none" stroke="black" d="M1117,-122.24C1117,-137.57 1117,-157 1117,-157 1117,-157 939.39,-157 939.39,-157"/>
<polygon fill="black" stroke="black" points="939.39,-153.5 929.39,-157 939.39,-160.5 939.39,-153.5"/>
</g>
<!-- TermsOfUseComponent -->
<g id="node6" class="node">
<title>TermsOfUseComponent</title>
<polygon fill="#ffffb3" stroke="black" points="1042.63,-122 889.37,-122 889.37,-86 1042.63,-86 1042.63,-122"/>
<text text-anchor="middle" x="966" y="-99.8" font-family="Times,serif" font-size="14.00">TermsOfUseComponent</text>
</g>
<!-- TermsOfUseComponent&#45;&gt;AdminModule -->
<g id="edge6" class="edge">
<title>TermsOfUseComponent&#45;&gt;AdminModule</title>
<path fill="none" stroke="black" d="M909.2,-122.11C909.2,-122.11 909.2,-140.99 909.2,-140.99"/>
<polygon fill="black" stroke="black" points="905.7,-140.99 909.2,-150.99 912.7,-140.99 905.7,-140.99"/>
</g>
<!-- UsersAssignComponent -->
<g id="node7" class="node">
<title>UsersAssignComponent</title>
<polygon fill="#ffffb3" stroke="black" points="871.09,-122 718.91,-122 718.91,-86 871.09,-86 871.09,-122"/>
<text text-anchor="middle" x="795" y="-99.8" font-family="Times,serif" font-size="14.00">UsersAssignComponent</text>
</g>
<!-- UsersAssignComponent&#45;&gt;AdminModule -->
<g id="edge7" class="edge">
<title>UsersAssignComponent&#45;&gt;AdminModule</title>
<path fill="none" stroke="black" d="M850.91,-122.11C850.91,-122.11 850.91,-140.99 850.91,-140.99"/>
<polygon fill="black" stroke="black" points="847.41,-140.99 850.91,-150.99 854.41,-140.99 847.41,-140.99"/>
</g>
<!-- UsersPanelComponent -->
<g id="node8" class="node">
<title>UsersPanelComponent</title>
<polygon fill="#ffffb3" stroke="black" points="701.31,-122 556.69,-122 556.69,-86 701.31,-86 701.31,-122"/>
<text text-anchor="middle" x="629" y="-99.8" font-family="Times,serif" font-size="14.00">UsersPanelComponent</text>
</g>
<!-- UsersPanelComponent&#45;&gt;AdminModule -->
<g id="edge8" class="edge">
<title>UsersPanelComponent&#45;&gt;AdminModule</title>
<path fill="none" stroke="black" d="M629,-122.24C629,-137.57 629,-157 629,-157 629,-157 820.71,-157 820.71,-157"/>
<polygon fill="black" stroke="black" points="820.71,-160.5 830.71,-157 820.71,-153.5 820.71,-160.5"/>
</g>
<!-- ZoomComponent -->
<g id="node9" class="node">
<title>ZoomComponent</title>
<polygon fill="#ffffb3" stroke="black" points="538.28,-122 423.72,-122 423.72,-86 538.28,-86 538.28,-122"/>
<text text-anchor="middle" x="481" y="-99.8" font-family="Times,serif" font-size="14.00">ZoomComponent</text>
</g>
<!-- ZoomComponent&#45;&gt;AdminModule -->
<g id="edge9" class="edge">
<title>ZoomComponent&#45;&gt;AdminModule</title>
<path fill="none" stroke="black" d="M481,-122.02C481,-139.37 481,-163 481,-163 481,-163 820.67,-163 820.67,-163"/>
<polygon fill="black" stroke="black" points="820.67,-166.5 830.67,-163 820.67,-159.5 820.67,-166.5"/>
</g>
<!-- AdminRoutingModule -->
<g id="node11" class="node">
<title>AdminRoutingModule</title>
<polygon fill="#8dd3c7" stroke="black" points="399.56,-122 396.56,-126 375.56,-126 372.56,-122 256.44,-122 256.44,-86 399.56,-86 399.56,-122"/>
<text text-anchor="middle" x="328" y="-99.8" font-family="Times,serif" font-size="14.00">AdminRoutingModule</text>
</g>
<!-- AdminRoutingModule&#45;&gt;AdminModule -->
<g id="edge10" class="edge">
<title>AdminRoutingModule&#45;&gt;AdminModule</title>
<path fill="none" stroke="black" d="M328,-122.11C328,-141.34 328,-169 328,-169 328,-169 820.53,-169 820.53,-169"/>
<polygon fill="black" stroke="black" points="820.53,-172.5 830.53,-169 820.53,-165.5 820.53,-172.5"/>
</g>
<!-- IconsModule -->
<g id="node12" class="node">
<title>IconsModule</title>
<polygon fill="#8dd3c7" stroke="black" points="237.87,-122 234.87,-126 213.87,-126 210.87,-122 148.13,-122 148.13,-86 237.87,-86 237.87,-122"/>
<text text-anchor="middle" x="193" y="-99.8" font-family="Times,serif" font-size="14.00">IconsModule</text>
</g>
<!-- IconsModule&#45;&gt;AdminModule -->
<g id="edge11" class="edge">
<title>IconsModule&#45;&gt;AdminModule</title>
<path fill="none" stroke="black" d="M193,-122.28C193,-143.32 193,-175 193,-175 193,-175 820.59,-175 820.59,-175"/>
<polygon fill="black" stroke="black" points="820.59,-178.5 830.59,-175 820.59,-171.5 820.59,-178.5"/>
</g>
<!-- PrimengModule -->
<g id="node13" class="node">
<title>PrimengModule</title>
<polygon fill="#8dd3c7" stroke="black" points="130.49,-122 127.49,-126 106.49,-126 103.49,-122 23.51,-122 23.51,-86 130.49,-86 130.49,-122"/>
<text text-anchor="middle" x="77" y="-99.8" font-family="Times,serif" font-size="14.00">PrimengModule</text>
</g>
<!-- PrimengModule&#45;&gt;AdminModule -->
<g id="edge12" class="edge">
<title>PrimengModule&#45;&gt;AdminModule</title>
<path fill="none" stroke="black" d="M77,-122.09C77,-145.13 77,-182 77,-182 77,-182 820.68,-182 820.68,-182"/>
<polygon fill="black" stroke="black" points="820.68,-185.5 830.68,-182 820.68,-178.5 820.68,-185.5"/>
</g>
</g>
</svg>
