<?xml version="1.0" encoding="UTF-8" standalone="no"?>
<!DOCTYPE svg PUBLIC "-//W3C//DTD SVG 1.1//EN"
 "http://www.w3.org/Graphics/SVG/1.1/DTD/svg11.dtd">
<!-- Generated by graphviz version 2.47.0 (20210316.0004)
 -->
<!-- Title: dependencies Pages: 1 -->
<svg width="2025pt" height="284pt"
 viewBox="0.00 0.00 2025.00 284.00" xmlns="http://www.w3.org/2000/svg" xmlns:xlink="http://www.w3.org/1999/xlink">
<g id="graph0" class="graph" transform="scale(1 1) rotate(0) translate(4 280)">
<title>dependencies</title>
<polygon fill="white" stroke="transparent" points="-4,4 -4,-280 2021,-280 2021,4 -4,4"/>
<text text-anchor="start" x="987.51" y="-42.4" font-family="Times-12" font-weight="bold" font-size="14.00">Legend</text>
<polygon fill="#ffffb3" stroke="transparent" points="774.5,-10 774.5,-30 794.5,-30 794.5,-10 774.5,-10"/>
<text text-anchor="start" x="798.13" y="-15.4" font-family="Times-12" font-size="14.00"> &#160;Declarations</text>
<polygon fill="#8dd3c7" stroke="transparent" points="887.5,-10 887.5,-30 907.5,-30 907.5,-10 887.5,-10"/>
<text text-anchor="start" x="911.23" y="-15.4" font-family="Times-12" font-size="14.00"> &#160;Module</text>
<polygon fill="#80b1d3" stroke="transparent" points="973.5,-10 973.5,-30 993.5,-30 993.5,-10 973.5,-10"/>
<text text-anchor="start" x="997.28" y="-15.4" font-family="Times-12" font-size="14.00"> &#160;Bootstrap</text>
<polygon fill="#fdb462" stroke="transparent" points="1070.5,-10 1070.5,-30 1090.5,-30 1090.5,-10 1070.5,-10"/>
<text text-anchor="start" x="1094.17" y="-15.4" font-family="Times-12" font-size="14.00"> &#160;Providers</text>
<polygon fill="#fb8072" stroke="transparent" points="1166.5,-10 1166.5,-30 1186.5,-30 1186.5,-10 1166.5,-10"/>
<text text-anchor="start" x="1190.23" y="-15.4" font-family="Times-12" font-size="14.00"> &#160;Exports</text>
<g id="clust1" class="cluster">
<title>cluster_AppModule</title>
<polygon fill="none" stroke="black" stroke-dasharray="1,5" points="8,-70 8,-268 2009,-268 2009,-70 8,-70"/>
</g>
<g id="clust8" class="cluster">
<title>cluster_AppModule_imports</title>
<polygon fill="none" stroke="black" points="1043,-78 1043,-130 2001,-130 2001,-78 1043,-78"/>
</g>
<g id="clust2" class="cluster">
<title>cluster_AppModule_declarations</title>
<polygon fill="none" stroke="black" points="299,-78 299,-130 1035,-130 1035,-78 299,-78"/>
</g>
<g id="clust11" class="cluster">
<title>cluster_AppModule_providers</title>
<polygon fill="none" stroke="black" points="16,-78 16,-130 291,-130 291,-78 16,-78"/>
</g>
<g id="clust10" class="cluster">
<title>cluster_AppModule_bootstrap</title>
<polygon fill="none" stroke="black" points="996,-208 996,-260 1120,-260 1120,-208 996,-208"/>
</g>
<!-- AppComponent -->
<g id="node1" class="node">
<title>AppComponent</title>
<polygon fill="#ffffb3" stroke="black" points="1026.94,-122 921.06,-122 921.06,-86 1026.94,-86 1026.94,-122"/>
<text text-anchor="middle" x="974" y="-99.8" font-family="Times,serif" font-size="14.00">AppComponent</text>
</g>
<!-- AppModule -->
<g id="node6" class="node">
<title>AppModule</title>
<polygon fill="#8dd3c7" stroke="black" points="1099.66,-187 1096.66,-191 1075.66,-191 1072.66,-187 1016.34,-187 1016.34,-151 1099.66,-151 1099.66,-187"/>
<text text-anchor="middle" x="1058" y="-164.8" font-family="Times,serif" font-size="14.00">AppModule</text>
</g>
<!-- AppComponent&#45;&gt;AppModule -->
<g id="edge1" class="edge">
<title>AppComponent&#45;&gt;AppModule</title>
<path fill="none" stroke="black" d="M1021.45,-122.11C1021.45,-122.11 1021.45,-140.99 1021.45,-140.99"/>
<polygon fill="black" stroke="black" points="1017.95,-140.99 1021.45,-150.99 1024.95,-140.99 1017.95,-140.99"/>
</g>
<!-- ForgotPasswordComponent -->
<g id="node2" class="node">
<title>ForgotPasswordComponent</title>
<polygon fill="#ffffb3" stroke="black" points="903.32,-122 730.68,-122 730.68,-86 903.32,-86 903.32,-122"/>
<text text-anchor="middle" x="817" y="-99.8" font-family="Times,serif" font-size="14.00">ForgotPasswordComponent</text>
</g>
<!-- ForgotPasswordComponent&#45;&gt;AppModule -->
<g id="edge2" class="edge">
<title>ForgotPasswordComponent&#45;&gt;AppModule</title>
<path fill="none" stroke="black" d="M817,-122.24C817,-137.57 817,-157 817,-157 817,-157 1006.3,-157 1006.3,-157"/>
<polygon fill="black" stroke="black" points="1006.3,-160.5 1016.3,-157 1006.3,-153.5 1006.3,-160.5"/>
</g>
<!-- LandingComponent -->
<g id="node3" class="node">
<title>LandingComponent</title>
<polygon fill="#ffffb3" stroke="black" points="712.99,-122 585.01,-122 585.01,-86 712.99,-86 712.99,-122"/>
<text text-anchor="middle" x="649" y="-99.8" font-family="Times,serif" font-size="14.00">LandingComponent</text>
</g>
<!-- LandingComponent&#45;&gt;AppModule -->
<g id="edge3" class="edge">
<title>LandingComponent&#45;&gt;AppModule</title>
<path fill="none" stroke="black" d="M649,-122.03C649,-139.06 649,-162 649,-162 649,-162 1006.15,-162 1006.15,-162"/>
<polygon fill="black" stroke="black" points="1006.15,-165.5 1016.15,-162 1006.15,-158.5 1006.15,-165.5"/>
</g>
<!-- SignInComponent -->
<g id="node4" class="node">
<title>SignInComponent</title>
<polygon fill="#ffffb3" stroke="black" points="567.17,-122 448.83,-122 448.83,-86 567.17,-86 567.17,-122"/>
<text text-anchor="middle" x="508" y="-99.8" font-family="Times,serif" font-size="14.00">SignInComponent</text>
</g>
<!-- SignInComponent&#45;&gt;AppModule -->
<g id="edge4" class="edge">
<title>SignInComponent&#45;&gt;AppModule</title>
<path fill="none" stroke="black" d="M508,-122.22C508,-140.83 508,-167 508,-167 508,-167 1006.21,-167 1006.21,-167"/>
<polygon fill="black" stroke="black" points="1006.21,-170.5 1016.21,-167 1006.21,-163.5 1006.21,-170.5"/>
</g>
<!-- SignUpComponent -->
<g id="node5" class="node">
<title>SignUpComponent</title>
<polygon fill="#ffffb3" stroke="black" points="431.11,-122 306.89,-122 306.89,-86 431.11,-86 431.11,-122"/>
<text text-anchor="middle" x="369" y="-99.8" font-family="Times,serif" font-size="14.00">SignUpComponent</text>
</g>
<!-- SignUpComponent&#45;&gt;AppModule -->
<g id="edge5" class="edge">
<title>SignUpComponent&#45;&gt;AppModule</title>
<path fill="none" stroke="black" d="M369,-122.22C369,-142.37 369,-172 369,-172 369,-172 1006.19,-172 1006.19,-172"/>
<polygon fill="black" stroke="black" points="1006.19,-175.5 1016.19,-172 1006.19,-168.5 1006.19,-175.5"/>
</g>
<!-- AppComponent  -->
<g id="node14" class="node">
<title>AppComponent </title>
<polygon fill="#80b1d3" stroke="black" points="1112.44,-252 1003.56,-252 1003.56,-216 1112.44,-216 1112.44,-252"/>
<text text-anchor="middle" x="1058" y="-229.8" font-family="Times,serif" font-size="14.00">AppComponent </text>
</g>
<!-- AppModule&#45;&gt;AppComponent  -->
<g id="edge13" class="edge">
<title>AppModule&#45;&gt;AppComponent </title>
<path fill="none" stroke="black" stroke-dasharray="1,5" d="M1058,-187.11C1058,-187.11 1058,-205.99 1058,-205.99"/>
<polygon fill="black" stroke="black" points="1054.5,-205.99 1058,-215.99 1061.5,-205.99 1054.5,-205.99"/>
</g>
<!-- AppRoutingModule -->
<g id="node7" class="node">
<title>AppRoutingModule</title>
<polygon fill="#8dd3c7" stroke="black" points="1993.27,-122 1990.27,-126 1969.27,-126 1966.27,-122 1864.73,-122 1864.73,-86 1993.27,-86 1993.27,-122"/>
<text text-anchor="middle" x="1929" y="-99.8" font-family="Times,serif" font-size="14.00">AppRoutingModule</text>
</g>
<!-- AppRoutingModule&#45;&gt;AppModule -->
<g id="edge6" class="edge">
<title>AppRoutingModule&#45;&gt;AppModule</title>
<path fill="none" stroke="black" d="M1929,-122.09C1929,-145.13 1929,-182 1929,-182 1929,-182 1109.72,-182 1109.72,-182"/>
<polygon fill="black" stroke="black" points="1109.72,-178.5 1099.72,-182 1109.72,-185.5 1109.72,-178.5"/>
</g>
<!-- AppSharedModule -->
<g id="node8" class="node">
<title>AppSharedModule</title>
<polygon fill="#8dd3c7" stroke="black" points="1846.03,-122 1843.03,-126 1822.03,-126 1819.03,-122 1723.97,-122 1723.97,-86 1846.03,-86 1846.03,-122"/>
<text text-anchor="middle" x="1785" y="-99.8" font-family="Times,serif" font-size="14.00">AppSharedModule</text>
</g>
<!-- AppSharedModule&#45;&gt;AppModule -->
<g id="edge7" class="edge">
<title>AppSharedModule&#45;&gt;AppModule</title>
<path fill="none" stroke="black" d="M1785,-122.04C1785,-143.66 1785,-177 1785,-177 1785,-177 1109.7,-177 1109.7,-177"/>
<polygon fill="black" stroke="black" points="1109.7,-173.5 1099.7,-177 1109.7,-180.5 1109.7,-173.5"/>
</g>
<!-- FormModule -->
<g id="node9" class="node">
<title>FormModule</title>
<polygon fill="#8dd3c7" stroke="black" points="1705.88,-122 1702.88,-126 1681.88,-126 1678.88,-122 1616.12,-122 1616.12,-86 1705.88,-86 1705.88,-122"/>
<text text-anchor="middle" x="1661" y="-99.8" font-family="Times,serif" font-size="14.00">FormModule</text>
</g>
<!-- FormModule&#45;&gt;AppModule -->
<g id="edge8" class="edge">
<title>FormModule&#45;&gt;AppModule</title>
<path fill="none" stroke="black" d="M1661,-122.22C1661,-142.37 1661,-172 1661,-172 1661,-172 1109.92,-172 1109.92,-172"/>
<polygon fill="black" stroke="black" points="1109.92,-168.5 1099.92,-172 1109.92,-175.5 1109.92,-168.5"/>
</g>
<!-- GraphQLModule -->
<g id="node10" class="node">
<title>GraphQLModule</title>
<polygon fill="#8dd3c7" stroke="black" points="1597.69,-122 1594.69,-126 1573.69,-126 1570.69,-122 1484.31,-122 1484.31,-86 1597.69,-86 1597.69,-122"/>
<text text-anchor="middle" x="1541" y="-99.8" font-family="Times,serif" font-size="14.00">GraphQLModule</text>
</g>
<!-- GraphQLModule&#45;&gt;AppModule -->
<g id="edge9" class="edge">
<title>GraphQLModule&#45;&gt;AppModule</title>
<path fill="none" stroke="black" d="M1541,-122.22C1541,-140.83 1541,-167 1541,-167 1541,-167 1110.02,-167 1110.02,-167"/>
<polygon fill="black" stroke="black" points="1110.02,-163.5 1100.02,-167 1110.02,-170.5 1110.02,-163.5"/>
</g>
<!-- IconsModule -->
<g id="node11" class="node">
<title>IconsModule</title>
<polygon fill="#8dd3c7" stroke="black" points="1465.87,-122 1462.87,-126 1441.87,-126 1438.87,-122 1376.13,-122 1376.13,-86 1465.87,-86 1465.87,-122"/>
<text text-anchor="middle" x="1421" y="-99.8" font-family="Times,serif" font-size="14.00">IconsModule</text>
</g>
<!-- IconsModule&#45;&gt;AppModule -->
<g id="edge10" class="edge">
<title>IconsModule&#45;&gt;AppModule</title>
<path fill="none" stroke="black" d="M1421,-122.03C1421,-139.06 1421,-162 1421,-162 1421,-162 1110,-162 1110,-162"/>
<polygon fill="black" stroke="black" points="1110,-158.5 1100,-162 1110,-165.5 1110,-158.5"/>
</g>
<!-- PrimengModule -->
<g id="node12" class="node">
<title>PrimengModule</title>
<polygon fill="#8dd3c7" stroke="black" points="1358.49,-122 1355.49,-126 1334.49,-126 1331.49,-122 1251.51,-122 1251.51,-86 1358.49,-86 1358.49,-122"/>
<text text-anchor="middle" x="1305" y="-99.8" font-family="Times,serif" font-size="14.00">PrimengModule</text>
</g>
<!-- PrimengModule&#45;&gt;AppModule -->
<g id="edge11" class="edge">
<title>PrimengModule&#45;&gt;AppModule</title>
<path fill="none" stroke="black" d="M1305,-122.24C1305,-137.57 1305,-157 1305,-157 1305,-157 1109.9,-157 1109.9,-157"/>
<polygon fill="black" stroke="black" points="1109.9,-153.5 1099.9,-157 1109.9,-160.5 1109.9,-153.5"/>
</g>
<!-- provideAuth(() =&gt; getAuth()) -->
<g id="node13" class="node">
<title>provideAuth(() =&gt; getAuth())</title>
<polygon fill="#8dd3c7" stroke="black" points="1233.12,-122 1230.12,-126 1209.12,-126 1206.12,-122 1050.88,-122 1050.88,-86 1233.12,-86 1233.12,-122"/>
<text text-anchor="middle" x="1142" y="-99.8" font-family="Times,serif" font-size="14.00">provideAuth(() =&gt; getAuth())</text>
</g>
<!-- provideAuth(() =&gt; getAuth())&#45;&gt;AppModule -->
<g id="edge12" class="edge">
<title>provideAuth(() =&gt; getAuth())&#45;&gt;AppModule</title>
<path fill="none" stroke="black" d="M1075.26,-122.11C1075.26,-122.11 1075.26,-140.99 1075.26,-140.99"/>
<polygon fill="black" stroke="black" points="1071.76,-140.99 1075.26,-150.99 1078.76,-140.99 1071.76,-140.99"/>
</g>
<!-- AuthService -->
<g id="node15" class="node">
<title>AuthService</title>
<ellipse fill="#fdb462" stroke="black" cx="224" cy="-104" rx="59.11" ry="18"/>
<text text-anchor="middle" x="224" y="-99.8" font-family="Times,serif" font-size="14.00">AuthService</text>
</g>
<!-- AuthService&#45;&gt;AppModule -->
<g id="edge14" class="edge">
<title>AuthService&#45;&gt;AppModule</title>
<path fill="none" stroke="black" d="M224,-122.04C224,-143.66 224,-177 224,-177 224,-177 1006.07,-177 1006.07,-177"/>
<polygon fill="black" stroke="black" points="1006.07,-180.5 1016.07,-177 1006.07,-173.5 1006.07,-180.5"/>
</g>
<!-- ToastService -->
<g id="node16" class="node">
<title>ToastService</title>
<ellipse fill="#fdb462" stroke="black" cx="85" cy="-104" rx="61.39" ry="18"/>
<text text-anchor="middle" x="85" y="-99.8" font-family="Times,serif" font-size="14.00">ToastService</text>
</g>
<!-- ToastService&#45;&gt;AppModule -->
<g id="edge15" class="edge">
<title>ToastService&#45;&gt;AppModule</title>
<path fill="none" stroke="black" d="M85,-122.09C85,-145.13 85,-182 85,-182 85,-182 1006.19,-182 1006.19,-182"/>
<polygon fill="black" stroke="black" points="1006.19,-185.5 1016.19,-182 1006.19,-178.5 1006.19,-185.5"/>
</g>
</g>
</svg>
