<?xml version="1.0" encoding="UTF-8" standalone="no"?>
<!DOCTYPE svg PUBLIC "-//W3C//DTD SVG 1.1//EN"
 "http://www.w3.org/Graphics/SVG/1.1/DTD/svg11.dtd">
<!-- Generated by graphviz version 2.47.0 (20210316.0004)
 -->
<!-- Title: dependencies Pages: 1 -->
<svg width="1561pt" height="284pt"
 viewBox="0.00 0.00 1561.00 284.00" xmlns="http://www.w3.org/2000/svg" xmlns:xlink="http://www.w3.org/1999/xlink">
<g id="graph0" class="graph" transform="scale(1 1) rotate(0) translate(4 280)">
<title>dependencies</title>
<polygon fill="white" stroke="transparent" points="-4,4 -4,-280 1557,-280 1557,4 -4,4"/>
<text text-anchor="start" x="755.51" y="-42.4" font-family="Times-12" font-weight="bold" font-size="14.00">Legend</text>
<polygon fill="#ffffb3" stroke="transparent" points="542.5,-10 542.5,-30 562.5,-30 562.5,-10 542.5,-10"/>
<text text-anchor="start" x="566.13" y="-15.4" font-family="Times-12" font-size="14.00"> &#160;Declarations</text>
<polygon fill="#8dd3c7" stroke="transparent" points="655.5,-10 655.5,-30 675.5,-30 675.5,-10 655.5,-10"/>
<text text-anchor="start" x="679.23" y="-15.4" font-family="Times-12" font-size="14.00"> &#160;Module</text>
<polygon fill="#80b1d3" stroke="transparent" points="741.5,-10 741.5,-30 761.5,-30 761.5,-10 741.5,-10"/>
<text text-anchor="start" x="765.28" y="-15.4" font-family="Times-12" font-size="14.00"> &#160;Bootstrap</text>
<polygon fill="#fdb462" stroke="transparent" points="838.5,-10 838.5,-30 858.5,-30 858.5,-10 838.5,-10"/>
<text text-anchor="start" x="862.17" y="-15.4" font-family="Times-12" font-size="14.00"> &#160;Providers</text>
<polygon fill="#fb8072" stroke="transparent" points="934.5,-10 934.5,-30 954.5,-30 954.5,-10 934.5,-10"/>
<text text-anchor="start" x="958.23" y="-15.4" font-family="Times-12" font-size="14.00"> &#160;Exports</text>
<g id="clust1" class="cluster">
<title>cluster_DynamicTableModule</title>
<polygon fill="none" stroke="black" stroke-dasharray="1,5" points="8,-70 8,-268 1545,-268 1545,-70 8,-70"/>
</g>
<g id="clust12" class="cluster">
<title>cluster_DynamicTableModule_exports</title>
<polygon fill="none" stroke="black" points="727,-208 727,-260 911,-260 911,-208 727,-208"/>
</g>
<g id="clust2" class="cluster">
<title>cluster_DynamicTableModule_declarations</title>
<polygon fill="none" stroke="black" points="16,-78 16,-130 1537,-130 1537,-78 16,-78"/>
</g>
<!-- BusinessSelectTableComponent -->
<g id="node1" class="node">
<title>BusinessSelectTableComponent</title>
<polygon fill="#ffffb3" stroke="black" points="1528.69,-122 1331.31,-122 1331.31,-86 1528.69,-86 1528.69,-122"/>
<text text-anchor="middle" x="1430" y="-99.8" font-family="Times,serif" font-size="14.00">BusinessSelectTableComponent</text>
</g>
<!-- DynamicTableModule -->
<g id="node9" class="node">
<title>DynamicTableModule</title>
<polygon fill="#8dd3c7" stroke="black" points="890.24,-187 887.24,-191 866.24,-191 863.24,-187 747.76,-187 747.76,-151 890.24,-151 890.24,-187"/>
<text text-anchor="middle" x="819" y="-164.8" font-family="Times,serif" font-size="14.00">DynamicTableModule</text>
</g>
<!-- BusinessSelectTableComponent&#45;&gt;DynamicTableModule -->
<g id="edge1" class="edge">
<title>BusinessSelectTableComponent&#45;&gt;DynamicTableModule</title>
<path fill="none" stroke="black" d="M1430,-122.29C1430,-144.21 1430,-178 1430,-178 1430,-178 900.29,-178 900.29,-178"/>
<polygon fill="black" stroke="black" points="900.29,-174.5 890.29,-178 900.29,-181.5 900.29,-174.5"/>
</g>
<!-- CellFormatPipe -->
<g id="node2" class="node">
<title>CellFormatPipe</title>
<polygon fill="#ffffb3" stroke="black" points="1313.16,-122 1208.84,-122 1208.84,-86 1313.16,-86 1313.16,-122"/>
<text text-anchor="middle" x="1261" y="-99.8" font-family="Times,serif" font-size="14.00">CellFormatPipe</text>
</g>
<!-- CellFormatPipe&#45;&gt;DynamicTableModule -->
<g id="edge2" class="edge">
<title>CellFormatPipe&#45;&gt;DynamicTableModule</title>
<path fill="none" stroke="black" d="M1261,-122.11C1261,-141.34 1261,-169 1261,-169 1261,-169 900.51,-169 900.51,-169"/>
<polygon fill="black" stroke="black" points="900.51,-165.5 890.51,-169 900.51,-172.5 900.51,-165.5"/>
</g>
<!-- ConfigSelectorComponent -->
<g id="node3" class="node">
<title>ConfigSelectorComponent</title>
<polygon fill="#ffffb3" stroke="black" points="1191.09,-122 1024.91,-122 1024.91,-86 1191.09,-86 1191.09,-122"/>
<text text-anchor="middle" x="1108" y="-99.8" font-family="Times,serif" font-size="14.00">ConfigSelectorComponent</text>
</g>
<!-- ConfigSelectorComponent&#45;&gt;DynamicTableModule -->
<g id="edge3" class="edge">
<title>ConfigSelectorComponent&#45;&gt;DynamicTableModule</title>
<path fill="none" stroke="black" d="M1108,-122.03C1108,-138.4 1108,-160 1108,-160 1108,-160 900.44,-160 900.44,-160"/>
<polygon fill="black" stroke="black" points="900.44,-156.5 890.44,-160 900.44,-163.5 900.44,-156.5"/>
</g>
<!-- DynamicTableComponent -->
<g id="node4" class="node">
<title>DynamicTableComponent</title>
<polygon fill="#ffffb3" stroke="black" points="1007.02,-122 842.98,-122 842.98,-86 1007.02,-86 1007.02,-122"/>
<text text-anchor="middle" x="925" y="-99.8" font-family="Times,serif" font-size="14.00">DynamicTableComponent</text>
</g>
<!-- DynamicTableComponent&#45;&gt;DynamicTableModule -->
<g id="edge4" class="edge">
<title>DynamicTableComponent&#45;&gt;DynamicTableModule</title>
<path fill="none" stroke="black" d="M866.55,-122.11C866.55,-122.11 866.55,-140.99 866.55,-140.99"/>
<polygon fill="black" stroke="black" points="863.05,-140.99 866.55,-150.99 870.05,-140.99 863.05,-140.99"/>
</g>
<!-- EntrepreneurSelectTableComponent -->
<g id="node5" class="node">
<title>EntrepreneurSelectTableComponent</title>
<polygon fill="#ffffb3" stroke="black" points="824.48,-122 603.52,-122 603.52,-86 824.48,-86 824.48,-122"/>
<text text-anchor="middle" x="714" y="-99.8" font-family="Times,serif" font-size="14.00">EntrepreneurSelectTableComponent</text>
</g>
<!-- EntrepreneurSelectTableComponent&#45;&gt;DynamicTableModule -->
<g id="edge5" class="edge">
<title>EntrepreneurSelectTableComponent&#45;&gt;DynamicTableModule</title>
<path fill="none" stroke="black" d="M785.94,-122.11C785.94,-122.11 785.94,-140.99 785.94,-140.99"/>
<polygon fill="black" stroke="black" points="782.44,-140.99 785.94,-150.99 789.44,-140.99 782.44,-140.99"/>
</g>
<!-- StartupSelectTableComponent -->
<g id="node6" class="node">
<title>StartupSelectTableComponent</title>
<polygon fill="#ffffb3" stroke="black" points="585.85,-122 398.15,-122 398.15,-86 585.85,-86 585.85,-122"/>
<text text-anchor="middle" x="492" y="-99.8" font-family="Times,serif" font-size="14.00">StartupSelectTableComponent</text>
</g>
<!-- StartupSelectTableComponent&#45;&gt;DynamicTableModule -->
<g id="edge6" class="edge">
<title>StartupSelectTableComponent&#45;&gt;DynamicTableModule</title>
<path fill="none" stroke="black" d="M492,-122.03C492,-138.4 492,-160 492,-160 492,-160 737.64,-160 737.64,-160"/>
<polygon fill="black" stroke="black" points="737.64,-163.5 747.64,-160 737.64,-156.5 737.64,-163.5"/>
</g>
<!-- TableConfigComponent -->
<g id="node7" class="node">
<title>TableConfigComponent</title>
<polygon fill="#ffffb3" stroke="black" points="380.09,-122 227.91,-122 227.91,-86 380.09,-86 380.09,-122"/>
<text text-anchor="middle" x="304" y="-99.8" font-family="Times,serif" font-size="14.00">TableConfigComponent</text>
</g>
<!-- TableConfigComponent&#45;&gt;DynamicTableModule -->
<g id="edge7" class="edge">
<title>TableConfigComponent&#45;&gt;DynamicTableModule</title>
<path fill="none" stroke="black" d="M304,-122.11C304,-141.34 304,-169 304,-169 304,-169 737.66,-169 737.66,-169"/>
<polygon fill="black" stroke="black" points="737.66,-172.5 747.66,-169 737.66,-165.5 737.66,-172.5"/>
</g>
<!-- TableSelectDialogComponent -->
<g id="node8" class="node">
<title>TableSelectDialogComponent</title>
<polygon fill="#ffffb3" stroke="black" points="209.52,-122 24.48,-122 24.48,-86 209.52,-86 209.52,-122"/>
<text text-anchor="middle" x="117" y="-99.8" font-family="Times,serif" font-size="14.00">TableSelectDialogComponent</text>
</g>
<!-- TableSelectDialogComponent&#45;&gt;DynamicTableModule -->
<g id="edge8" class="edge">
<title>TableSelectDialogComponent&#45;&gt;DynamicTableModule</title>
<path fill="none" stroke="black" d="M117,-122.29C117,-144.21 117,-178 117,-178 117,-178 737.5,-178 737.5,-178"/>
<polygon fill="black" stroke="black" points="737.5,-181.5 747.5,-178 737.5,-174.5 737.5,-181.5"/>
</g>
<!-- DynamicTableComponent  -->
<g id="node10" class="node">
<title>DynamicTableComponent </title>
<polygon fill="#fb8072" stroke="black" points="903.02,-252 734.98,-252 734.98,-216 903.02,-216 903.02,-252"/>
<text text-anchor="middle" x="819" y="-229.8" font-family="Times,serif" font-size="14.00">DynamicTableComponent </text>
</g>
<!-- DynamicTableModule&#45;&gt;DynamicTableComponent  -->
<g id="edge9" class="edge">
<title>DynamicTableModule&#45;&gt;DynamicTableComponent </title>
<path fill="none" stroke="black" stroke-dasharray="5,2" d="M819,-187.11C819,-187.11 819,-205.99 819,-205.99"/>
<polygon fill="black" stroke="black" points="815.5,-205.99 819,-215.99 822.5,-205.99 815.5,-205.99"/>
</g>
</g>
</svg>
